/* XPM */
static char * close_xpm[] = {
"24 22 132 2",
"  	c None",
". 	c #FDFDFD",
"+ 	c #FDFDFC",
"@ 	c #FCFDFD",
"# 	c #FDFCFC",
"$ 	c #FDFCFD",
"% 	c #FCFCFC",
"& 	c #FCFCFD",
"* 	c #FCFDFC",
"= 	c #FBFBFB",
"- 	c #FCFBFB",
"; 	c #FCFBFC",
"> 	c #FBFBFC",
", 	c #FCFCFB",
"' 	c #FBFCFB",
") 	c #FBFCFC",
"! 	c #FAFBFB",
"~ 	c #FBFBFA",
"{ 	c #FBFAFB",
"] 	c #FAFAFB",
"^ 	c #FBFAFA",
"/ 	c #FAFAFA",
"( 	c #FAF9F9",
"_ 	c #FAFAF9",
": 	c #FAF9FA",
"< 	c #F9FAF9",
"[ 	c #F9FAFA",
"} 	c #F9F9F9",
"| 	c #F8F9F8",
"1 	c #F9F9F8",
"2 	c #F8F8F8",
"3 	c #F8F8F9",
"4 	c #F7F7F7",
"5 	c #F8F7F7",
"6 	c #F9F8F8",
"7 	c #F7F7F8",
"8 	c #F8F8F7",
"9 	c #F7F8F7",
"0 	c #F6F7F7",
"a 	c #2E3436",
"b 	c #5C6162",
"c 	c #E3E3E3",
"d 	c #F6F6F6",
"e 	c #E4E5E5",
"f 	c #5F6465",
"g 	c #F6F6F7",
"h 	c #F7F8F8",
"i 	c #F7F7F6",
"j 	c #505557",
"k 	c #515657",
"l 	c #E4E4E4",
"m 	c #53585A",
"n 	c #4F5456",
"o 	c #F5F6F6",
"p 	c #F7F6F7",
"q 	c #F6F5F6",
"r 	c #F5F5F5",
"s 	c #E5E6E6",
"t 	c #4C5152",
"u 	c #525758",
"v 	c #484D4F",
"w 	c #E1E2E2",
"x 	c #F5F6F5",
"y 	c #F4F5F4",
"z 	c #474C4E",
"A 	c #F4F4F4",
"B 	c #F4F5F5",
"C 	c #F5F4F4",
"D 	c #F4F4F5",
"E 	c #F5F4F5",
"F 	c #F3F3F3",
"G 	c #E2E2E3",
"H 	c #4C5153",
"I 	c #E1E1E2",
"J 	c #F3F4F3",
"K 	c #F4F4F3",
"L 	c #F3F4F4",
"M 	c #F3F3F4",
"N 	c #DFE0E0",
"O 	c #4E5355",
"P 	c #4D5254",
"Q 	c #F2F2F3",
"R 	c #F3F3F2",
"S 	c #F2F3F3",
"T 	c #F2F2F1",
"U 	c #54595B",
"V 	c #585D5E",
"W 	c #E7E8E8",
"X 	c #F2F1F2",
"Y 	c #F2F3F2",
"Z 	c #F2F2F2",
"` 	c #F2F1F1",
" .	c #555A5C",
"..	c #EBEBEB",
"+.	c #E9EAEA",
"@.	c #F1F1F1",
"#.	c #F1F2F2",
"$.	c #F1F1F2",
"%.	c #F1F2F1",
"&.	c #F0F0F0",
"*.	c #F0F0F1",
"=.	c #F0F1F0",
"-.	c #F1F0F0",
";.	c #F1F0F1",
">.	c #F0F1F1",
",.	c #F0EFF0",
"'.	c #EFEFF0",
").	c #EFF0F0",
"!.	c #EFEFEF",
"~.	c #F0EFEF",
"{.	c #EFF0EF",
"].	c #EFEEEF",
"^.	c #EEEEEF",
"/.	c #EFEFEE",
"(.	c #EEEFEF",
"_.	c #EFEEEE",
":.	c #EEEEEE",
"<.	c #EEEFEE",
"[.	c #EDEEED",
"}.	c #EDEEEE",
"|.	c #EDEDEE",
"1.	c #EEEDED",
"2.	c #EDEDED",
"3.	c #EEEDEE",
"4.	c #EEEEED",
"5.	c #EDECED",
"6.	c #ECECEC",
"7.	c #ECEDEC",
"8.	c #ECECED",
"9.	c #EDEDEC",
"0.	c #ECEDED",
"a.	c #EDECEC",
". . . . . . . . + . . . @ . . . # . . . . + . . ",
"# @ $ % % + # # % % % % % % % @ % % % & % % * % ",
"= - ; > = = - , = ; = = > ; > > - = - ' ) - > , ",
"! ! ~ = { ] = ^ { ^ ^ ~ ! { { { ^ ! = = ~ = ~ = ",
"/ / ( / / _ / : / / / / / / / / < : [ ( / [ / } ",
"} } } ( < } } } } } } } } } } } } } } } } } } } ",
"| 1 2 | 1 | 3 2 4 5 4 | 5 4 4 2 2 3 | 6 | 2 2 6 ",
"7 8 8 8 9 4 7 0 a b c d d e f a g 5 7 9 7 7 h 7 ",
"4 0 4 4 0 i i d j a k c l m a n o 4 p 4 4 4 i 4 ",
"d d d q d d d r s t a k u a v w r d d d d q d d ",
"r r r r r o r x y e t a a z c A A x x r r r r r ",
"y B C A D C A E F G u a a H I J C D A y y C B A ",
"K L M K K K L F N O a n n a P N Q F M L F M M K ",
"F R F S F F F T U a V W W n a m X F F R Y F F F ",
"Z Z Z Y Z Z Z ` a  ...Z Z +.U a @.Z Z Z Z Z #.Z ",
"$.X #.$.@.T %.&.% r @.$.@.&.2 } &.@.#.` %.X @.@.",
"@.&.*.=.=.&.-.-.=.*.=.;.>.&.&.*.&.-.>.=.*.-.>.&.",
"&.,.'.).!.&.&.&.).'.!.).&.&.&.).,.~.{.,.'.).).&.",
"!.!.!.!.!.!.].!.!.!.!.!.^.!.!./.(.(.!.!.!.!.!./.",
"_.:.:.<.]._.:.:.:.:.:.:.:.:.:.:._.:.:.:.:.:.:.:.",
"[.}.|.|.1.1.|.}.[.2.2.|.1.3.|.1.}.4.2.4.[.[.|.2.",
"2.5.6.6.7.8.2.6.9.5.0.5.5.9.2.6.0.a.9.a.5.9.6.a."};
