/* XPM */
static char * max_xpm[] = {
"24 22 104 2",
"  	c None",
". 	c #FDFDFD",
"+ 	c #FDFDFC",
"@ 	c #FCFDFD",
"# 	c #FDFCFC",
"$ 	c #FDFCFD",
"% 	c #FCFCFC",
"& 	c #FCFCFD",
"* 	c #FCFDFC",
"= 	c #FBFBFB",
"- 	c #FCFBFB",
"; 	c #FCFBFC",
"> 	c #FBFBFC",
", 	c #FCFCFB",
"' 	c #FBFCFB",
") 	c #FBFCFC",
"! 	c #FAFBFB",
"~ 	c #FBFBFA",
"{ 	c #FBFAFB",
"] 	c #FAFAFB",
"^ 	c #FBFAFA",
"/ 	c #FAFAFA",
"( 	c #FAF9F9",
"_ 	c #FAFAF9",
": 	c #FAF9FA",
"< 	c #F9FAF9",
"[ 	c #F9FAFA",
"} 	c #F9F9F9",
"| 	c #F8F9F8",
"1 	c #F9F9F8",
"2 	c #F8F8F8",
"3 	c #F8F8F9",
"4 	c #F7F7F7",
"5 	c #F8F7F7",
"6 	c #F9F8F8",
"7 	c #F7F7F8",
"8 	c #F8F8F7",
"9 	c #F7F8F7",
"0 	c #F6F7F7",
"a 	c #2E3436",
"b 	c #F7F8F8",
"c 	c #F7F7F6",
"d 	c #F6F6F6",
"e 	c #F7F6F7",
"f 	c #F6F5F6",
"g 	c #F5F5F5",
"h 	c #F5F6F6",
"i 	c #F4F5F4",
"j 	c #F5F6F5",
"k 	c #F4F5F5",
"l 	c #F5F4F4",
"m 	c #F4F4F4",
"n 	c #F4F4F5",
"o 	c #F4F3F4",
"p 	c #F5F4F5",
"q 	c #F4F4F3",
"r 	c #F3F4F4",
"s 	c #F3F3F4",
"t 	c #F3F3F3",
"u 	c #F3F3F2",
"v 	c #F2F3F3",
"w 	c #F2F2F1",
"x 	c #F3F2F3",
"y 	c #F2F3F2",
"z 	c #F2F2F2",
"A 	c #F2F1F1",
"B 	c #F1F2F2",
"C 	c #F1F1F2",
"D 	c #F2F1F2",
"E 	c #F1F1F1",
"F 	c #F1F2F1",
"G 	c #F0F0F0",
"H 	c #F0F0F1",
"I 	c #F0F1F0",
"J 	c #F1F0F0",
"K 	c #F1F0F1",
"L 	c #F0F1F1",
"M 	c #F0EFF0",
"N 	c #EFEFF0",
"O 	c #EFF0F0",
"P 	c #EFEFEF",
"Q 	c #F0EFEF",
"R 	c #EFF0EF",
"S 	c #EFEEEF",
"T 	c #EEEEEF",
"U 	c #EFEFEE",
"V 	c #EEEFEF",
"W 	c #EFEEEE",
"X 	c #EEEEEE",
"Y 	c #EEEFEE",
"Z 	c #EDEEED",
"` 	c #EDEEEE",
" .	c #EDEDEE",
"..	c #EEEDED",
"+.	c #EDEDED",
"@.	c #EEEDEE",
"#.	c #EEEEED",
"$.	c #EDECED",
"%.	c #ECECEC",
"&.	c #ECEDEC",
"*.	c #ECECED",
"=.	c #EDEDEC",
"-.	c #ECEDED",
";.	c #EDECEC",
". . . . . . . . + . . . @ . . . # . . . . + . . ",
"# @ $ % % + # # % % % % % % % @ % % % & % % * % ",
"= - ; > = = - , = ; = = > ; > > - = - ' ) - > , ",
"! ! ~ = { ] = ^ { ^ ^ ~ ! { { { ^ ! = = ~ = ~ = ",
"/ / ( / / _ / : / / / / / / / / < : [ ( / [ / } ",
"} } } ( < } } } } } } } } } } } } } } } } } } } ",
"| 1 2 | 1 | 3 2 4 5 2 | 6 2 2 2 2 3 | 6 | 2 2 6 ",
"7 8 8 8 9 4 7 0 a a a a a a a a 7 5 7 9 7 7 b 7 ",
"4 0 4 4 0 c c d a a a a a a a a 0 4 e 4 4 4 c 4 ",
"d d d f d d d g a a % % % % a a d d d d d f d d ",
"g g g g g h g i a a g g h g a a g j j g g g g g ",
"i k l m n l m o a a m i m p a a l n m i i l k m ",
"q r s q q q r t a a o r t t a a s t s r t s s q ",
"t u t v t t t w a a a a a a a a x t t u y t t t ",
"z z z y z z z A a a a a a a a a z z z z z z B z ",
"C D B C E w F G % % % % % % % = E E B A F D E E ",
"E G H I I G J J I H I K G G G G G J L I H J L G ",
"G M N O P G G G O N P O G G G O M Q R M N O O G ",
"P P P P P P S P P P P P T P P U V V P P P P P U ",
"W X X Y S W X X X X X X X X X X W X X X X X X X ",
"Z `  . ..... .` Z +.+. ...@. ...` #.+.#.Z Z  .+.",
"+.$.%.%.&.*.+.%.=.$.-.$.$.=.+.%.-.;.=.;.$.=.%.;."};
