/* XPM */
static char * min_pressed_xpm[] = {
"24 22 106 2",
"  	c None",
". 	c #FDFDFD",
"+ 	c #FDFDFC",
"@ 	c #FCFDFD",
"# 	c #FDFCFC",
"$ 	c #FDFCFD",
"% 	c #FCFCFC",
"& 	c #FCFCFD",
"* 	c #FCFDFC",
"= 	c #FBFBFB",
"- 	c #FCFBFB",
"; 	c #FCFBFC",
"> 	c #FBFBFC",
", 	c #FCFCFB",
"' 	c #FBFCFB",
") 	c #FBFCFC",
"! 	c #FAFBFB",
"~ 	c #FBFBFA",
"{ 	c #FBFAFB",
"] 	c #FAFAFB",
"^ 	c #FBFAFA",
"/ 	c #FAFAFA",
"( 	c #FAF9F9",
"_ 	c #FAFAF9",
": 	c #FAF9FA",
"< 	c #F9FAF9",
"[ 	c #F9FAFA",
"} 	c #F9F9F9",
"| 	c #F8F9F8",
"1 	c #F9F9F8",
"2 	c #F8F8F8",
"3 	c #F8F8F9",
"4 	c #F9F8F8",
"5 	c #F7F7F8",
"6 	c #F8F8F7",
"7 	c #F7F8F7",
"8 	c #F7F7F7",
"9 	c #F7F8F8",
"0 	c #F8F7F8",
"a 	c #F8F7F7",
"b 	c #F6F7F7",
"c 	c #F7F7F6",
"d 	c #F7F6F6",
"e 	c #F7F6F7",
"f 	c #F6F6F6",
"g 	c #F6F5F6",
"h 	c #F5F5F5",
"i 	c #F5F6F6",
"j 	c #F5F6F5",
"k 	c #F4F5F4",
"l 	c #F4F5F5",
"m 	c #F5F4F4",
"n 	c #F4F4F4",
"o 	c #F4F4F5",
"p 	c #F5F4F5",
"q 	c #F4F4F3",
"r 	c #F3F4F4",
"s 	c #F3F3F4",
"t 	c #A9A9A9",
"u 	c #F3F3F3",
"v 	c #F3F3F2",
"w 	c #F2F3F3",
"x 	c #F3F2F3",
"y 	c #F2F3F2",
"z 	c #F2F2F2",
"A 	c #F3F2F2",
"B 	c #F1F2F2",
"C 	c #F1F1F2",
"D 	c #F2F1F2",
"E 	c #F1F1F1",
"F 	c #F2F2F1",
"G 	c #F1F2F1",
"H 	c #F2F1F1",
"I 	c #F0F0F0",
"J 	c #F0F0F1",
"K 	c #F0F1F0",
"L 	c #F1F0F0",
"M 	c #F1F0F1",
"N 	c #F0F1F1",
"O 	c #F0EFF0",
"P 	c #EFEFF0",
"Q 	c #EFF0F0",
"R 	c #EFEFEF",
"S 	c #F0EFEF",
"T 	c #EFF0EF",
"U 	c #EFEEEF",
"V 	c #EEEEEF",
"W 	c #EFEFEE",
"X 	c #EEEFEF",
"Y 	c #EFEEEE",
"Z 	c #EEEEEE",
"` 	c #EEEFEE",
" .	c #EDEEED",
"..	c #EDEEEE",
"+.	c #EDEDEE",
"@.	c #EEEDED",
"#.	c #EDEDED",
"$.	c #EEEDEE",
"%.	c #EEEEED",
"&.	c #EDECED",
"*.	c #ECECEC",
"=.	c #ECEDEC",
"-.	c #ECECED",
";.	c #EDEDEC",
">.	c #ECEDED",
",.	c #EDECEC",
". . . . . . . . + . . . @ . . . # . . . . + . . ",
"# @ $ % % + # # % % % % % % % @ % % % & % % * % ",
"= - ; > = = - , = ; = = > ; > > - = - ' ) - > , ",
"! ! ~ = { ] = ^ { ^ ^ ~ ! { { { ^ ! = = ~ = ~ = ",
"/ / ( / / _ / : / / / / / / / / < : [ ( / [ / } ",
"} } } ( < } } } } } } } } } } } } } } } } } } } ",
"| 1 2 | 1 | 3 2 2 4 2 | 4 2 2 2 2 3 | 4 | 2 2 4 ",
"5 6 6 6 7 8 5 9 7 9 2 8 8 2 0 5 5 a 5 7 5 5 9 5 ",
"8 b 8 8 b c c 8 c 8 8 8 d e 8 e b 8 e 8 8 8 c 8 ",
"f f f g f f f f f f f g f f g f f f f f f g f f ",
"h h h h h i h j j h h h i h h h h j j h h h h h ",
"k l m n o m n p n k n k n p n k m o n k k m l n ",
"q r s q q q r n t t t t t t t t s u s r u s s q ",
"u v u w u u u v t t t t t t t t x u u v y u u u ",
"z z z y z z z A % % % % % % % % z z z z z z B z ",
"C D B C E F G E C E E C E E E E E E B H G D E E ",
"E I J K K I L L K J K M N E N J I L N K J L N I ",
"I O P Q R I I I Q P R Q I I I Q O S T O P Q Q I ",
"R R R R R R U R R R R R V R R W X X R R R R R W ",
"Y Z Z ` U Y Z Z Z Z Z Z Z Z Z Z Y Z Z Z Z Z Z Z ",
" ...+.+.@.@.+... .#.#.+.@.$.+.@...%.#.%. . .+.#.",
"#.&.*.*.=.-.#.*.;.&.>.&.&.;.#.*.>.,.;.,.&.;.*.,."};
