/* XPM */
static char * stick_pressed_xpm[] = {
"24 22 108 2",
"  	c None",
". 	c #FDFDFD",
"+ 	c #FDFDFC",
"@ 	c #FCFDFD",
"# 	c #FDFCFC",
"$ 	c #FDFCFD",
"% 	c #FCFCFC",
"& 	c #FCFCFD",
"* 	c #FCFDFC",
"= 	c #FBFBFB",
"- 	c #FCFBFB",
"; 	c #FCFBFC",
"> 	c #FBFBFC",
", 	c #FCFCFB",
"' 	c #FBFCFB",
") 	c #FBFCFC",
"! 	c #FAFBFB",
"~ 	c #FBFBFA",
"{ 	c #FBFAFB",
"] 	c #FAFAFB",
"^ 	c #FBFAFA",
"/ 	c #FAFAFA",
"( 	c #FAF9F9",
"_ 	c #FAFAF9",
": 	c #FAF9FA",
"< 	c #F9FAF9",
"[ 	c #F9FAFA",
"} 	c #F9F9F9",
"| 	c #F8F9F8",
"1 	c #F9F9F8",
"2 	c #F8F8F8",
"3 	c #F8F8F9",
"4 	c #F9F8F8",
"5 	c #F7F7F8",
"6 	c #F8F8F7",
"7 	c #F7F8F7",
"8 	c #F7F7F7",
"9 	c #F7F8F8",
"0 	c #F8F7F8",
"a 	c #F8F7F7",
"b 	c #F6F7F7",
"c 	c #F7F7F6",
"d 	c #F7F6F6",
"e 	c #F7F6F7",
"f 	c #F6F6F6",
"g 	c #F6F5F6",
"h 	c #F5F5F5",
"i 	c #F5F6F6",
"j 	c #F5F6F5",
"k 	c #A9A9A9",
"l 	c #F4F5F4",
"m 	c #F4F5F5",
"n 	c #F5F4F4",
"o 	c #F4F4F4",
"p 	c #F4F4F5",
"q 	c #F5F4F5",
"r 	c #F4F4F3",
"s 	c #F3F4F4",
"t 	c #F3F3F4",
"u 	c #F4F3F4",
"v 	c #F3F3F3",
"w 	c #F4F3F3",
"x 	c #F3F3F2",
"y 	c #F2F3F3",
"z 	c #F3F2F2",
"A 	c #F3F2F3",
"B 	c #F2F3F2",
"C 	c #F2F2F2",
"D 	c #F1F2F2",
"E 	c #F1F1F2",
"F 	c #F2F1F2",
"G 	c #F1F1F1",
"H 	c #F2F2F1",
"I 	c #F1F2F1",
"J 	c #F2F1F1",
"K 	c #F0F0F0",
"L 	c #F0F0F1",
"M 	c #F0F1F0",
"N 	c #F1F0F0",
"O 	c #F1F0F1",
"P 	c #F0F1F1",
"Q 	c #F0EFF0",
"R 	c #EFEFF0",
"S 	c #EFF0F0",
"T 	c #EFEFEF",
"U 	c #F0EFEF",
"V 	c #EFF0EF",
"W 	c #EFEEEF",
"X 	c #EEEEEF",
"Y 	c #EFEFEE",
"Z 	c #EEEFEF",
"` 	c #EFEEEE",
" .	c #EEEEEE",
"..	c #EEEFEE",
"+.	c #EDEEED",
"@.	c #EDEEEE",
"#.	c #EDEDEE",
"$.	c #EEEDED",
"%.	c #EDEDED",
"&.	c #EEEDEE",
"*.	c #EEEEED",
"=.	c #EDECED",
"-.	c #ECECEC",
";.	c #ECEDEC",
">.	c #ECECED",
",.	c #EDEDEC",
"'.	c #ECEDED",
").	c #EDECEC",
". . . . . . . . + . . . @ . . . # . . . . + . . ",
"# @ $ % % + # # % % % % % % % @ % % % & % % * % ",
"= - ; > = = - , = ; = = > ; > > - = - ' ) - > , ",
"! ! ~ = { ] = ^ { ^ ^ ~ ! { { { ^ ! = = ~ = ~ = ",
"/ / ( / / _ / : / / / / / / / / < : [ ( / [ / } ",
"} } } ( < } } } } } } } } } } } } } } } } } } } ",
"| 1 2 | 1 | 3 2 2 4 2 | 4 2 2 2 2 3 | 4 | 2 2 4 ",
"5 6 6 6 7 8 5 9 7 9 2 8 8 2 0 5 5 a 5 7 5 5 9 5 ",
"8 b 8 8 b c c 8 c 8 8 8 d e 8 e b 8 e 8 8 8 c 8 ",
"f f f g f f f f f f f g f f g f f f f f f g f f ",
"h h h h h i h j j h h k k h h h h j j h h h h h ",
"l m n o p n o q o l o k k q o l n p o l l n m o ",
"r s t r r r s o u u u % % v w s t v t s v t t r ",
"v x v y v v v x y v v y v v v z A v v x B v v v ",
"C C C B C C C z C C C C C C C C C C C C C C D C ",
"E F D E G H I G E G G E G G G G G G D J I F G G ",
"G K L M M K N N M L M O P G P L K N P M L N P K ",
"K Q R S T K K K S R T S K K K S Q U V Q R S S K ",
"T T T T T T W T T T T T X T T Y Z Z T T T T T Y ",
"`  . ...W `  . . . . . . . . . .`  . . . . . . .",
"+.@.#.#.$.$.#.@.+.%.%.#.$.&.#.$.@.*.%.*.+.+.#.%.",
"%.=.-.-.;.>.%.-.,.=.'.=.=.,.%.-.'.).,.).=.,.-.)."};
