#define iconify_width 8
#define iconify_height 8
static unsigned char iconify_bits[] = {
   0x00, 0x00, 0x78, 0xfc, 0xcc, 0xcc, 0xfc, 0x78 };
