#define max_toggled_width 8
#define max_toggled_height 8
static unsigned char max_toggled_bits[] = {
   0x00, 0x7c, 0xfe, 0xee, 0xc6, 0xee, 0xfe, 0x7c };
