/* XPM */
static char * close_unfocus_xpm[] = {
"23 23 26 1",
" 	c None",
".	c #EDEDED",
"+	c #F6F6F6",
"@	c #F8F8F8",
"#	c #CACAC9",
"$	c #ECECEC",
"%	c #F5F5F5",
"&	c #FAFAFA",
"*	c #C9C8C8",
"=	c #AAAAAA",
"-	c #D6D5D5",
";	c #A4A3A1",
">	c #FBFBFB",
",	c #FFFFFF",
"'	c #A3A3A0",
")	c #BFBFBF",
"!	c #C4C4C3",
"~	c #F9F9F9",
"{	c #C3C2C2",
"]	c #FAF9F9",
"^	c #F7F7F6",
"/	c #999996",
"(	c #F3F3F3",
"_	c #A3A2A0",
":	c #939392",
"<	c #A5A4A2",
".......................",
".......................",
".......................",
".......................",
".......................",
".......................",
".......................",
".......+@#..$#@+.......",
".......%&&*$*&&%.......",
".......=@&&-&&@=.......",
".......;=@>,>@=;.......",
".......$'),,,)'$.......",
".......$!~>,>~!$.......",
".......{]&@)@&]{.......",
".......^&@=/=@&^.......",
".......(%=_$_=%(.......",
".......::<...<::.......",
".......................",
".......................",
".......................",
".......................",
".......................",
"......................."};
