/* XPM */
static char * close_focus_alt_xpm[] = {
"23 23 66 1",
" 	c None",
".	c #C3C3C2",
"+	c #9C9C9B",
"@	c #C2C1C0",
"#	c #9F9F9E",
"$	c #C0BFBF",
"%	c #A1A1A0",
"&	c #BFBEBD",
"*	c #A4A4A3",
"=	c #BDBCBB",
"-	c #A6A6A5",
";	c #BBBBBA",
">	c #A9A8A7",
",	c #BAB9B8",
"'	c #ABABAA",
")	c #B8B8B7",
"!	c #F6F6F6",
"~	c #F8F8F8",
"{	c #CACAC9",
"]	c #AEADAC",
"^	c #B7B6B5",
"/	c #B8B7B6",
"(	c #F5F5F5",
"_	c #FAFAFA",
":	c #C9C8C8",
"<	c #B0B0AF",
"[	c #B5B4B4",
"}	c #B3B2B2",
"|	c #AAAAAA",
"1	c #D6D5D5",
"2	c #B3B2B1",
"3	c #B4B3B2",
"4	c #A4A3A1",
"5	c #FBFBFB",
"6	c #FFFFFF",
"7	c #B5B5B4",
"8	c #B2B1B0",
"9	c #A3A3A0",
"0	c #BFBFBF",
"a	c #C4C4C3",
"b	c #F9F9F9",
"c	c #BABAB9",
"d	c #AFAEAD",
"e	c #C3C2C2",
"f	c #FAF9F9",
"g	c #ADACAC",
"h	c #B0AFAF",
"i	c #F7F7F6",
"j	c #999996",
"k	c #B1B0B0",
"l	c #B2B1B1",
"m	c #F3F3F3",
"n	c #A3A2A0",
"o	c #939392",
"p	c #A5A4A2",
"q	c #C4C3C2",
"r	c #B9B8B8",
"s	c #C7C6C5",
"t	c #C9C8C7",
"u	c #C1C0BF",
"v	c #CCCBCA",
"w	c #C5C4C3",
"x	c #CECDCC",
"y	c #D1D0CF",
"z	c #CDCCCB",
"A	c #D3D2D1",
"......................+",
"@@@@@@@@@@@@@@@@@@@@@@#",
"$$$$$$$$$$$$$$$$$$$$$$%",
"&&&&&&&&&&&&&&&&&&&&&&*",
"======================-",
";;;;;;;;;;;;;;;;;;;;;;>",
",,,,,,,==,,,,,==,,,,,,'",
"))))));!~{))){~!;)))))]",
"^^^^^^/(__:^:__(/^^^^^<",
"[[[[[[}|~__1__~|}[[[[[2",
"33333334|~565~|43333337",
"8888888890666098888888/",
"<<<<<<<<ab565ba<<<<<<<c",
"dddddddef_~0~_fedddddd=",
"gggggghi_~|j|~_ihggggg&",
"kkkkkklm(|nkn|(mlkkkkk@",
"[[[[[[}oop[[[poo}[[[[[q",
"rrrrrrr[[rrrrr[[rrrrrrs",
"======================t",
"uuuuuuuuuuuuuuuuuuuuuuv",
"wwwwwwwwwwwwwwwwwwwwwwx",
"tttttttttttttttttttttty",
"zzzzzzzzzzzzzzzzzzzzzzA"};
