/* XPM */
static char * close_focus_xpm[] = {
"23 23 86 1",
" 	c None",
".	c #E9E8E7",
"+	c #C3C3C2",
"@	c #9C9C9B",
"#	c #E8E7E6",
"$	c #C2C1C0",
"%	c #9F9F9E",
"&	c #C0BFBF",
"*	c #A1A1A0",
"=	c #E7E6E5",
"-	c #BFBEBD",
";	c #A4A4A3",
">	c #E6E5E4",
",	c #BDBCBB",
"'	c #A6A6A5",
")	c #E5E4E3",
"!	c #BBBBBA",
"~	c #A9A8A7",
"{	c #E4E3E2",
"]	c #BAB9B8",
"^	c #ABABAA",
"/	c #E3E2E1",
"(	c #B8B8B7",
"_	c #F6F6F6",
":	c #F8F8F8",
"<	c #CACAC9",
"[	c #AEADAC",
"}	c #E2E1E0",
"|	c #B7B6B5",
"1	c #B8B7B6",
"2	c #F5F5F5",
"3	c #FAFAFA",
"4	c #C9C8C8",
"5	c #B0B0AF",
"6	c #B5B4B4",
"7	c #B3B2B2",
"8	c #AAAAAA",
"9	c #D6D5D5",
"0	c #B3B2B1",
"a	c #E1E0DF",
"b	c #B4B3B2",
"c	c #A4A3A1",
"d	c #FBFBFB",
"e	c #FFFFFF",
"f	c #B5B5B4",
"g	c #E0DFDE",
"h	c #B2B1B0",
"i	c #A3A3A0",
"j	c #BFBFBF",
"k	c #DFDEDD",
"l	c #C4C4C3",
"m	c #F9F9F9",
"n	c #BABAB9",
"o	c #DEDDDC",
"p	c #AFAEAD",
"q	c #C3C2C2",
"r	c #FAF9F9",
"s	c #DDDCDB",
"t	c #ADACAC",
"u	c #B0AFAF",
"v	c #F7F7F6",
"w	c #999996",
"x	c #DCDBDA",
"y	c #B1B0B0",
"z	c #B2B1B1",
"A	c #F3F3F3",
"B	c #A3A2A0",
"C	c #939392",
"D	c #A5A4A2",
"E	c #C4C3C2",
"F	c #DBDAD9",
"G	c #B9B8B8",
"H	c #C7C6C5",
"I	c #DAD9D8",
"J	c #C9C8C7",
"K	c #D9D8D7",
"L	c #C1C0BF",
"M	c #CCCBCA",
"N	c #D8D7D6",
"O	c #C5C4C3",
"P	c #CECDCC",
"Q	c #D7D6D5",
"R	c #D1D0CF",
"S	c #D6D5D4",
"T	c #CDCCCB",
"U	c #D3D2D1",
".+++++++++++++++++++++@",
"#$$$$$$$$$$$$$$$$$$$$$%",
"#&&&&&&&&&&&&&&&&&&&&&*",
"=---------------------;",
">,,,,,,,,,,,,,,,,,,,,,'",
")!!!!!!!!!!!!!!!!!!!!!~",
"{]]]]]],,]]]]],,]]]]]]^",
"/(((((!_:<(((<:_!((((([",
"}|||||12334|43321|||||5",
"}6666678:33933:87666660",
"abbbbbbc8:ded:8cbbbbbbf",
"ghhhhhhhijeeejihhhhhhh1",
"k5555555lmdedml5555555n",
"oppppppqr3:j:3rqpppppp,",
"stttttuv3:8w8:3vuttttt-",
"xyyyyyzA28ByB82Azyyyyy$",
"x666667CCD666DCC766666E",
"FGGGGGG66GGGGG66GGGGGGH",
"I,,,,,,,,,,,,,,,,,,,,,J",
"KLLLLLLLLLLLLLLLLLLLLLM",
"NOOOOOOOOOOOOOOOOOOOOOP",
"QJJJJJJJJJJJJJJJJJJJJJR",
"STTTTTTTTTTTTTTTTTTTTTU"};
