/* XPM */
static char * max_unfocus_xpm[] = {
"23 23 3 1",
" 	c None",
".	c #EFEFEF",
"+	c #A9A9A9",
".......................",
".......................",
".......................",
".......................",
".......................",
".......................",
".......................",
".......+++++++++.......",
".......+++++++++.......",
".......++.....++.......",
".......++.....++.......",
".......++.....++.......",
".......++.....++.......",
".......++.....++.......",
".......+++++++++.......",
".......+++++++++.......",
".......................",
".......................",
".......................",
".......................",
".......................",
".......................",
"......................."};
