/* XPM */
static char * shade_pressed_xpm[] = {
"23 23 7 1",
" 	c None",
".	c #EFEFEF",
"+	c #EEEEEE",
"@	c #FFFFFF",
"#	c #8E8E8D",
"$	c #CCCBCB",
"%	c #C3C2C2",
".......................",
".......................",
".......................",
".......................",
".......................",
".......................",
".......................",
"......+@@@@@@@@@.......",
".......@@@@@@@@@.......",
".......#########.......",
".........+$@$+.........",
"........+%@@@%+........",
"........%@@@@@%+.......",
"........@@@@@@@+.......",
"........#######........",
".......................",
".......................",
".......................",
".......................",
".......................",
".......................",
".......................",
"......................."};
