/* XPM */
static char * unshade_unfocus_xpm[] = {
"23 23 5 1",
" 	c None",
".	c #EFEFEF",
"+	c #EEEEEE",
"@	c #A9A9A9",
"#	c #EDEDED",
".......................",
".......................",
".......................",
".......................",
".......................",
".......................",
".......................",
"......+@@@@@@@@@.......",
"......+@@@@@@@@@.......",
"......+................",
".......+@@@@@@@........",
"........#@@@@@.+.......",
".........+@@@..........",
".........+.@...........",
"..........+............",
".......................",
".......................",
".......................",
".......................",
".......................",
".......................",
".......................",
"......................."};
