/* XPM */
static char * unshade_focus_alt_xpm[] = {
"23 23 46 1",
" 	c None",
".	c #C3C3C2",
"+	c #9C9C9B",
"@	c #C2C1C0",
"#	c #9F9F9E",
"$	c #C0BFBF",
"%	c #A1A1A0",
"&	c #BFBEBD",
"*	c #A4A4A3",
"=	c #BDBCBB",
"-	c #A6A6A5",
";	c #BBBBBA",
">	c #A9A8A7",
",	c #BAB9B8",
"'	c #ABABAA",
")	c #B8B8B7",
"!	c #FFFFFF",
"~	c #AEADAC",
"{	c #B7B6B5",
"]	c #B0B0AF",
"^	c #B5B4B4",
"/	c #8E8E8D",
"(	c #B3B2B1",
"_	c #B4B3B2",
":	c #B5B5B4",
"<	c #B2B1B0",
"[	c #AAAAAA",
"}	c #B8B7B6",
"|	c #A3A3A0",
"1	c #BABAB9",
"2	c #AFAEAD",
"3	c #ADACAC",
"4	c #8F8F8E",
"5	c #A6A5A3",
"6	c #B1B0B0",
"7	c #C4C3C2",
"8	c #B9B8B8",
"9	c #C7C6C5",
"0	c #C9C8C7",
"a	c #C1C0BF",
"b	c #CCCBCA",
"c	c #C5C4C3",
"d	c #CECDCC",
"e	c #D1D0CF",
"f	c #CDCCCB",
"g	c #D3D2D1",
"......................+",
"@@@@@@@@@@@@@@@@@@@@@@#",
"$$$$$$$$$$$$$$$$$$$$$$%",
"&&&&&&&&&&&&&&&&&&&&&&*",
"======================-",
";;;;;;;;;;;;;;;;;;;;;;>",
",,,,,,,,,,,,,,,,,,,,,,'",
")))))))!!!!!!!!!))))))~",
"{{{{{{{!!!!!!!!!{{{{{{]",
"^^^^^^^/////////^^^^^^(",
"________!!!!!!!_______:",
"<<<<<<<<[!!!!![<<<<<<<}",
"]]]]]]]<|[!!![|<]]]]]]1",
"222222222|/!/|22222222=",
"3333333333|45333333333&",
"6666666666666666666666@",
"^^^^^^^^^^^^^^^^^^^^^^7",
"88888888888888888888889",
"======================0",
"aaaaaaaaaaaaaaaaaaaaaab",
"ccccccccccccccccccccccd",
"0000000000000000000000e",
"ffffffffffffffffffffffg"};
