/* XPM */
static char * unshade_pressed_xpm[] = {
"23 23 7 1",
" 	c None",
".	c #EFEFEF",
"+	c #EEEEEE",
"@	c #FFFFFF",
"#	c #8E8E8D",
"$	c #AAAAAA",
"%	c #ABABAB",
".......................",
".......................",
".......................",
".......................",
".......................",
".......................",
".......................",
"......+@@@@@@@@@.......",
"......+@@@@@@@@@.......",
"......+#########.......",
".......+@@@@@@@........",
"........$@@@@@$+.......",
".........%@@@$.........",
".........+#@#..........",
"..........+#...........",
".......................",
".......................",
".......................",
".......................",
".......................",
".......................",
".......................",
"......................."};
