/* XPM */
static char * close_pressed_xpm[] = {
"16 16 21 1",
" 	c None",
".	c #FCFEFB",
"+	c #5DA023",
"@	c #85D441",
"#	c #A3DF6E",
"$	c #DAF2C5",
"%	c #DFF4CD",
"&	c #7ED235",
"*	c #5EA223",
"=	c #97DB5C",
"-	c #7AD02F",
";	c #61A625",
">	c #72C42B",
",	c #67B027",
"'	c #81D33A",
")	c #74C72C",
"!	c #6EBD2A",
"~	c #8BD649",
"{	c #63AA25",
"]	c #69B427",
"^	c #71C22B",
"................",
"................",
"................",
"................",
"....+@....#+....",
"....@+@$%&*=....",
".....-;>,;'.....",
"......);;>......",
"......,+;!......",
".....~+{];=.....",
"....#*>..#;-....",
"....;#....^+....",
"................",
"................",
"................",
"................"};
