/* XPM */
static char * close_prelight_xpm[] = {
"16 16 23 1",
" 	c None",
".	c #FDFEFD",
"+	c #7DDB44",
"@	c #70D82F",
"#	c #ECF9E4",
"$	c #F3FBEE",
"%	c #9FE574",
"&	c #77D93A",
"*	c #80DC47",
"=	c #67CF26",
"-	c #64CA25",
";	c #F5FCF1",
">	c #F1FBEA",
",	c #83DD4C",
"'	c #F6FCF3",
")	c #63C825",
"!	c #EDFAE5",
"~	c #E8F8DF",
"{	c #EAF9E0",
"]	c #72D833",
"^	c #74D936",
"/	c #87DE51",
"(	c #82DD4A",
"................",
"................",
"................",
"................",
"....+@#..$%&....",
"....*=-;>-=,....",
"....'-=))=-!....",
".....$-==)~.....",
".....$-==)~.....",
"....$-=))=-$....",
"....,=){>)=]....",
"....&^..../(....",
"................",
"................",
"................",
"................"};
