/* XPM */
static char * close_pressed_xpm[] = {
"18 18 5 1",
" 	c None",
".	c #888888",
"+	c #444444",
"@	c #878787",
"#	c #868686",
"..................",
"..................",
"..................",
"..................",
"..................",
"..................",
"......++..++......",
"......++++++......",
"......@++++@......",
"......#++++.......",
"......++++++......",
"......++..++......",
"..................",
"..................",
"..................",
"..................",
"..................",
".................."};
