/* XPM */
static char * min_pressed_xpm[] = {
"18 18 3 1",
" 	c None",
".	c #888888",
"+	c #444444",
"..................",
"..................",
"..................",
"..................",
"..................",
"..................",
"..................",
"..................",
"..................",
"..................",
"......++++++......",
"......++++++......",
"..................",
"..................",
"..................",
"..................",
"..................",
".................."};
