/* XPM */
static char * stick_pressed_xpm[] = {
"16 16 4 1",
" 	c None",
".	c #888888",
"+	c #151515",
"@	c #444444",
"................",
"................",
"................",
"................",
"................",
".....++++++.....",
".....+....+.....",
".....+.@@.+.....",
".....+.@@.+.....",
".....+....+.....",
".....++++++.....",
"................",
"................",
"................",
"................",
"................"};
