/* XPM */
static char * close_focus_alt_xpm[] = {
"21 21 63 1",
" 	c None",
".	c #C3C3C2",
"+	c #9C9C9B",
"@	c #C2C1C0",
"#	c #9F9F9E",
"$	c #C0BFBF",
"%	c #A1A1A0",
"&	c #BFBEBD",
"*	c #A4A4A3",
"=	c #BDBCBB",
"-	c #A6A6A5",
";	c #BAB9B8",
">	c #ABABAA",
",	c #B8B8B7",
"'	c #BBBBBA",
")	c #F6F6F6",
"!	c #F8F8F8",
"~	c #CACAC9",
"{	c #AEADAC",
"]	c #B7B6B5",
"^	c #B8B7B6",
"/	c #F5F5F5",
"(	c #FAFAFA",
"_	c #C9C8C8",
":	c #B0B0AF",
"<	c #B5B4B4",
"[	c #B3B2B2",
"}	c #AAAAAA",
"|	c #D6D5D5",
"1	c #B3B2B1",
"2	c #B4B3B2",
"3	c #A4A3A1",
"4	c #FBFBFB",
"5	c #FFFFFF",
"6	c #B5B5B4",
"7	c #B2B1B0",
"8	c #A3A3A0",
"9	c #BFBFBF",
"0	c #C4C4C3",
"a	c #F9F9F9",
"b	c #BABAB9",
"c	c #AFAEAD",
"d	c #C3C2C2",
"e	c #FAF9F9",
"f	c #ADACAC",
"g	c #B0AFAF",
"h	c #F7F7F6",
"i	c #999996",
"j	c #B1B0B0",
"k	c #B2B1B1",
"l	c #F3F3F3",
"m	c #A3A2A0",
"n	c #939392",
"o	c #A5A4A2",
"p	c #C4C3C2",
"q	c #C9C8C7",
"r	c #C1C0BF",
"s	c #CCCBCA",
"t	c #C5C4C3",
"u	c #CECDCC",
"v	c #D1D0CF",
"w	c #CDCCCB",
"x	c #D3D2D1",
"....................+",
"@@@@@@@@@@@@@@@@@@@@#",
"$$$$$$$$$$$$$$$$$$$$%",
"&&&&&&&&&&&&&&&&&&&&*",
"====================-",
";;;;;;==;;;;;==;;;;;>",
",,,,,')!~,,,~!)',,,,{",
"]]]]]^/((_]_((/^]]]]:",
"<<<<<[}!((|((!}[<<<<1",
"2222223}!454!}3222226",
"77777778955598777777^",
":::::::0a454a0::::::b",
"ccccccde(!9!(edccccc=",
"fffffgh(!}i}!(hgffff&",
"jjjjjkl/}mjm}/lkjjjj@",
"<<<<<[nno<<<onn[<<<<p",
"====================q",
"rrrrrrrrrrrrrrrrrrrrs",
"ttttttttttttttttttttu",
"qqqqqqqqqqqqqqqqqqqqv",
"wwwwwwwwwwwwwwwwwwwwx"};
