/* XPM */
static char * close_focus_xpm[] = {
"21 21 81 1",
" 	c None",
".	c #E9E8E7",
"+	c #C3C3C2",
"@	c #9C9C9B",
"#	c #E8E7E6",
"$	c #C2C1C0",
"%	c #9F9F9E",
"&	c #C0BFBF",
"*	c #A1A1A0",
"=	c #E7E6E5",
"-	c #BFBEBD",
";	c #A4A4A3",
">	c #E6E5E4",
",	c #BDBCBB",
"'	c #A6A6A5",
")	c #E4E3E2",
"!	c #BAB9B8",
"~	c #ABABAA",
"{	c #E3E2E1",
"]	c #B8B8B7",
"^	c #BBBBBA",
"/	c #F6F6F6",
"(	c #F8F8F8",
"_	c #CACAC9",
":	c #AEADAC",
"<	c #E2E1E0",
"[	c #B7B6B5",
"}	c #B8B7B6",
"|	c #F5F5F5",
"1	c #FAFAFA",
"2	c #C9C8C8",
"3	c #B0B0AF",
"4	c #B5B4B4",
"5	c #B3B2B2",
"6	c #AAAAAA",
"7	c #D6D5D5",
"8	c #B3B2B1",
"9	c #E1E0DF",
"0	c #B4B3B2",
"a	c #A4A3A1",
"b	c #FBFBFB",
"c	c #FFFFFF",
"d	c #B5B5B4",
"e	c #E0DFDE",
"f	c #B2B1B0",
"g	c #A3A3A0",
"h	c #BFBFBF",
"i	c #DFDEDD",
"j	c #C4C4C3",
"k	c #F9F9F9",
"l	c #BABAB9",
"m	c #DEDDDC",
"n	c #AFAEAD",
"o	c #C3C2C2",
"p	c #FAF9F9",
"q	c #DDDCDB",
"r	c #ADACAC",
"s	c #B0AFAF",
"t	c #F7F7F6",
"u	c #999996",
"v	c #DCDBDA",
"w	c #B1B0B0",
"x	c #B2B1B1",
"y	c #F3F3F3",
"z	c #A3A2A0",
"A	c #939392",
"B	c #A5A4A2",
"C	c #C4C3C2",
"D	c #DAD9D8",
"E	c #C9C8C7",
"F	c #D9D8D7",
"G	c #C1C0BF",
"H	c #CCCBCA",
"I	c #D8D7D6",
"J	c #C5C4C3",
"K	c #CECDCC",
"L	c #D7D6D5",
"M	c #D1D0CF",
"N	c #D6D5D4",
"O	c #CDCCCB",
"P	c #D3D2D1",
".+++++++++++++++++++@",
"#$$$$$$$$$$$$$$$$$$$%",
"#&&&&&&&&&&&&&&&&&&&*",
"=-------------------;",
">,,,,,,,,,,,,,,,,,,,'",
")!!!!!,,!!!!!,,!!!!!~",
"{]]]]^/(_]]]_(/^]]]]:",
"<[[[[}|112[211|}[[[[3",
"<444456(11711(6544448",
"900000a6(bcb(6a00000d",
"effffffghccchgffffff}",
"i333333jkbcbkj333333l",
"mnnnnnop1(h(1ponnnnn,",
"qrrrrst1(6u6(1tsrrrr-",
"vwwwwxy|6zwz6|yxwwww$",
"v44445AAB444BAA54444C",
"D,,,,,,,,,,,,,,,,,,,E",
"FGGGGGGGGGGGGGGGGGGGH",
"IJJJJJJJJJJJJJJJJJJJK",
"LEEEEEEEEEEEEEEEEEEEM",
"NOOOOOOOOOOOOOOOOOOOP"};
