/* XPM */
static char * min_pressed_xpm[] = {
"21 21 4 1",
" 	c None",
".	c #EDEDED",
"+	c #FFFFFF",
"@	c #8E8E8D",
".....................",
".....................",
".....................",
".....................",
".....................",
".....................",
".....................",
".....................",
".....................",
".....................",
".....................",
".....................",
".....................",
".......+++++++.......",
".......+++++++.......",
".......@@@@@@@.......",
".....................",
".....................",
".....................",
".....................",
"....................."};
