/* XPM */
static char * shade_focus_xpm[] = {
"21 21 58 1",
" 	c None",
".	c #E9E8E7",
"+	c #C3C3C2",
"@	c #9C9C9B",
"#	c #E8E7E6",
"$	c #C2C1C0",
"%	c #9F9F9E",
"&	c #C0BFBF",
"*	c #A1A1A0",
"=	c #E7E6E5",
"-	c #BFBEBD",
";	c #A4A4A3",
">	c #E6E5E4",
",	c #BDBCBB",
"'	c #A6A6A5",
")	c #E4E3E2",
"!	c #BAB9B8",
"~	c #ABABAA",
"{	c #E3E2E1",
"]	c #B8B8B7",
"^	c #FFFFFF",
"/	c #AEADAC",
"(	c #E2E1E0",
"_	c #B7B6B5",
":	c #B0B0AF",
"<	c #B5B4B4",
"[	c #8E8E8D",
"}	c #B3B2B1",
"|	c #E1E0DF",
"1	c #B4B3B2",
"2	c #CCCBCB",
"3	c #B5B5B4",
"4	c #E0DFDE",
"5	c #B2B1B0",
"6	c #C3C2C2",
"7	c #B8B7B6",
"8	c #DFDEDD",
"9	c #BABAB9",
"0	c #DEDDDC",
"a	c #AFAEAD",
"b	c #DDDCDB",
"c	c #ADACAC",
"d	c #DCDBDA",
"e	c #B1B0B0",
"f	c #C4C3C2",
"g	c #DAD9D8",
"h	c #C9C8C7",
"i	c #D9D8D7",
"j	c #C1C0BF",
"k	c #CCCBCA",
"l	c #D8D7D6",
"m	c #C5C4C3",
"n	c #CECDCC",
"o	c #D7D6D5",
"p	c #D1D0CF",
"q	c #D6D5D4",
"r	c #CDCCCB",
"s	c #D3D2D1",
".+++++++++++++++++++@",
"#$$$$$$$$$$$$$$$$$$$%",
"#&&&&&&&&&&&&&&&&&&&*",
"=-------------------;",
">,,,,,,,,,,,,,,,,,,,'",
")!!!!!!!!!!!!!!!!!!!~",
"{]]]]]^^^^^^^^^]]]]]/",
"(_____^^^^^^^^^_____:",
"(<<<<<[[[[[[[[[<<<<<}",
"|111111112^2111111113",
"455555556^^^655555557",
"8::::::6^^^^^6::::::9",
"0aaaaaa^^^^^^^aaaaaa,",
"bcccccc[[[[[[[cccccc-",
"deeeeeeeeeeeeeeeeeee$",
"d<<<<<<<<<<<<<<<<<<<f",
"g,,,,,,,,,,,,,,,,,,,h",
"ijjjjjjjjjjjjjjjjjjjk",
"lmmmmmmmmmmmmmmmmmmmn",
"ohhhhhhhhhhhhhhhhhhhp",
"qrrrrrrrrrrrrrrrrrrrs"};
