/* XPM */
static char * shade_unfocus_xpm[] = {
"21 21 6 1",
" 	c None",
".	c #EFEFEF",
"+	c #EEEEEE",
"@	c #A9A9A9",
"#	c #EDEDED",
"$	c #EBEBEB",
".....................",
".....................",
".....................",
".....................",
".....................",
".....................",
".....+@@@@@@@@@......",
"......@@@@@@@@@......",
".....................",
"........+#@#+........",
".......+$@@@++.......",
".......#@@@@@#+......",
"......+@@@@@@@+......",
".....................",
".....................",
".....................",
".....................",
".....................",
".....................",
".....................",
"....................."};
