/* XPM */
static char * stick_focus_alt_xpm[] = {
"21 21 38 1",
" 	c None",
".	c #C3C3C2",
"+	c #9C9C9B",
"@	c #C2C1C0",
"#	c #9F9F9E",
"$	c #C0BFBF",
"%	c #A1A1A0",
"&	c #BFBEBD",
"*	c #A4A4A3",
"=	c #BDBCBB",
"-	c #A6A6A5",
";	c #BAB9B8",
">	c #ABABAA",
",	c #B8B8B7",
"'	c #AEADAC",
")	c #B7B6B5",
"!	c #B0B0AF",
"~	c #B5B4B4",
"{	c #B3B2B1",
"]	c #B4B3B2",
"^	c #B5B5B4",
"/	c #B2B1B0",
"(	c #FFFFFF",
"_	c #B8B7B6",
":	c #BABAB9",
"<	c #AFAEAD",
"[	c #8E8E8D",
"}	c #ADACAC",
"|	c #B1B0B0",
"1	c #C4C3C2",
"2	c #C9C8C7",
"3	c #C1C0BF",
"4	c #CCCBCA",
"5	c #C5C4C3",
"6	c #CECDCC",
"7	c #D1D0CF",
"8	c #CDCCCB",
"9	c #D3D2D1",
"....................+",
"@@@@@@@@@@@@@@@@@@@@#",
"$$$$$$$$$$$$$$$$$$$$%",
"&&&&&&&&&&&&&&&&&&&&*",
"====================-",
";;;;;;;;;;;;;;;;;;;;>",
",,,,,,,,,,,,,,,,,,,,'",
"))))))))))))))))))))!",
"~~~~~~~~~~~~~~~~~~~~{",
"]]]]]]]]]]]]]]]]]]]]^",
"/////////(((////////_",
"!!!!!!!!!(((!!!!!!!!:",
"<<<<<<<<<[[[<<<<<<<<=",
"}}}}}}}}}}}}}}}}}}}}&",
"||||||||||||||||||||@",
"~~~~~~~~~~~~~~~~~~~~1",
"====================2",
"333333333333333333334",
"555555555555555555556",
"222222222222222222227",
"888888888888888888889"};
