/* XPM */
static char * stuck_unfocus_xpm[] = {
"21 21 3 1",
" 	c None",
".	c #EFEFEF",
"+	c #A9A9A9",
".....................",
".....................",
".....................",
".....................",
".....................",
".....................",
"......+++++++++......",
"......+++++++++......",
"......+++++++++......",
"......+++++++++......",
"......+++++++++......",
"......+++++++++......",
"......+++++++++......",
"......+++++++++......",
"......+++++++++......",
".....................",
".....................",
".....................",
".....................",
".....................",
"....................."};
