/* XPM */
static char * unshade_focus_alt_xpm[] = {
"21 21 42 1",
" 	c None",
".	c #C3C3C2",
"+	c #9C9C9B",
"@	c #C2C1C0",
"#	c #9F9F9E",
"$	c #C0BFBF",
"%	c #A1A1A0",
"&	c #BFBEBD",
"*	c #A4A4A3",
"=	c #BDBCBB",
"-	c #A6A6A5",
";	c #BAB9B8",
">	c #ABABAA",
",	c #B8B8B7",
"'	c #FFFFFF",
")	c #AEADAC",
"!	c #B7B6B5",
"~	c #B0B0AF",
"{	c #B5B4B4",
"]	c #8E8E8D",
"^	c #B3B2B1",
"/	c #B4B3B2",
"(	c #B5B5B4",
"_	c #B2B1B0",
":	c #AAAAAA",
"<	c #B8B7B6",
"[	c #A3A3A0",
"}	c #BABAB9",
"|	c #AFAEAD",
"1	c #ADACAC",
"2	c #8F8F8E",
"3	c #A6A5A3",
"4	c #B1B0B0",
"5	c #C4C3C2",
"6	c #C9C8C7",
"7	c #C1C0BF",
"8	c #CCCBCA",
"9	c #C5C4C3",
"0	c #CECDCC",
"a	c #D1D0CF",
"b	c #CDCCCB",
"c	c #D3D2D1",
"....................+",
"@@@@@@@@@@@@@@@@@@@@#",
"$$$$$$$$$$$$$$$$$$$$%",
"&&&&&&&&&&&&&&&&&&&&*",
"====================-",
";;;;;;;;;;;;;;;;;;;;>",
",,,,,,''''''''',,,,,)",
"!!!!!!'''''''''!!!!!~",
"{{{{{{]]]]]]]]]{{{{{^",
"///////'''''''//////(",
"_______:''''':______<",
"~~~~~~_[:''':[_~~~~~}",
"||||||||[]'][|||||||=",
"111111111[2311111111&",
"44444444444444444444@",
"{{{{{{{{{{{{{{{{{{{{5",
"====================6",
"777777777777777777778",
"999999999999999999990",
"66666666666666666666a",
"bbbbbbbbbbbbbbbbbbbbc"};
