/* XPM */
static char * unshade_focus_xpm[] = {
"21 21 60 1",
" 	c None",
".	c #E9E8E7",
"+	c #C3C3C2",
"@	c #9C9C9B",
"#	c #E8E7E6",
"$	c #C2C1C0",
"%	c #9F9F9E",
"&	c #C0BFBF",
"*	c #A1A1A0",
"=	c #E7E6E5",
"-	c #BFBEBD",
";	c #A4A4A3",
">	c #E6E5E4",
",	c #BDBCBB",
"'	c #A6A6A5",
")	c #E4E3E2",
"!	c #BAB9B8",
"~	c #ABABAA",
"{	c #E3E2E1",
"]	c #B8B8B7",
"^	c #FFFFFF",
"/	c #AEADAC",
"(	c #E2E1E0",
"_	c #B7B6B5",
":	c #B0B0AF",
"<	c #B5B4B4",
"[	c #8E8E8D",
"}	c #B3B2B1",
"|	c #E1E0DF",
"1	c #B4B3B2",
"2	c #B5B5B4",
"3	c #E0DFDE",
"4	c #B2B1B0",
"5	c #AAAAAA",
"6	c #B8B7B6",
"7	c #DFDEDD",
"8	c #A3A3A0",
"9	c #BABAB9",
"0	c #DEDDDC",
"a	c #AFAEAD",
"b	c #DDDCDB",
"c	c #ADACAC",
"d	c #8F8F8E",
"e	c #A6A5A3",
"f	c #DCDBDA",
"g	c #B1B0B0",
"h	c #C4C3C2",
"i	c #DAD9D8",
"j	c #C9C8C7",
"k	c #D9D8D7",
"l	c #C1C0BF",
"m	c #CCCBCA",
"n	c #D8D7D6",
"o	c #C5C4C3",
"p	c #CECDCC",
"q	c #D7D6D5",
"r	c #D1D0CF",
"s	c #D6D5D4",
"t	c #CDCCCB",
"u	c #D3D2D1",
".+++++++++++++++++++@",
"#$$$$$$$$$$$$$$$$$$$%",
"#&&&&&&&&&&&&&&&&&&&*",
"=-------------------;",
">,,,,,,,,,,,,,,,,,,,'",
")!!!!!!!!!!!!!!!!!!!~",
"{]]]]]^^^^^^^^^]]]]]/",
"(_____^^^^^^^^^_____:",
"(<<<<<[[[[[[[[[<<<<<}",
"|111111^^^^^^^1111112",
"34444445^^^^^54444446",
"7:::::485^^^584:::::9",
"0aaaaaaa8[^[8aaaaaaa,",
"bcccccccc8decccccccc-",
"fggggggggggggggggggg$",
"f<<<<<<<<<<<<<<<<<<<h",
"i,,,,,,,,,,,,,,,,,,,j",
"klllllllllllllllllllm",
"nooooooooooooooooooop",
"qjjjjjjjjjjjjjjjjjjjr",
"stttttttttttttttttttu"};
