/* XPM */
static char * min_unfocus_xpm[] = {
"23 23 4 1",
" 	c None",
".	c #EDEDED",
"+	c #FFFFFF",
"@	c #8E8E8D",
".......................",
".......................",
".......................",
".......................",
".......................",
".......................",
".......................",
".......................",
".......................",
".......................",
".......................",
".......................",
".......................",
".......................",
"........+++++++........",
"........+++++++........",
"........@@@@@@@........",
".......................",
".......................",
".......................",
".......................",
".......................",
"......................."};
