/* XPM */
static char * shade_focus_alt_xpm[] = {
"23 23 44 1",
" 	c None",
".	c #C3C3C2",
"+	c #9C9C9B",
"@	c #C2C1C0",
"#	c #9F9F9E",
"$	c #C0BFBF",
"%	c #A1A1A0",
"&	c #BFBEBD",
"*	c #A4A4A3",
"=	c #BDBCBB",
"-	c #A6A6A5",
";	c #BBBBBA",
">	c #A9A8A7",
",	c #BAB9B8",
"'	c #ABABAA",
")	c #B8B8B7",
"!	c #FFFFFF",
"~	c #AEADAC",
"{	c #B7B6B5",
"]	c #B0B0AF",
"^	c #B5B4B4",
"/	c #8E8E8D",
"(	c #B3B2B1",
"_	c #B4B3B2",
":	c #CCCBCB",
"<	c #B5B5B4",
"[	c #B2B1B0",
"}	c #C3C2C2",
"|	c #B8B7B6",
"1	c #BABAB9",
"2	c #AFAEAD",
"3	c #ADACAC",
"4	c #B1B0B0",
"5	c #C4C3C2",
"6	c #B9B8B8",
"7	c #C7C6C5",
"8	c #C9C8C7",
"9	c #C1C0BF",
"0	c #CCCBCA",
"a	c #C5C4C3",
"b	c #CECDCC",
"c	c #D1D0CF",
"d	c #CDCCCB",
"e	c #D3D2D1",
"......................+",
"@@@@@@@@@@@@@@@@@@@@@@#",
"$$$$$$$$$$$$$$$$$$$$$$%",
"&&&&&&&&&&&&&&&&&&&&&&*",
"======================-",
";;;;;;;;;;;;;;;;;;;;;;>",
",,,,,,,,,,,,,,,,,,,,,,'",
")))))))!!!!!!!!!))))))~",
"{{{{{{{!!!!!!!!!{{{{{{]",
"^^^^^^^/////////^^^^^^(",
"__________:!:_________<",
"[[[[[[[[[}!!!}[[[[[[[[|",
"]]]]]]]]}!!!!!}]]]]]]]1",
"22222222!!!!!!!2222222=",
"33333333///////3333333&",
"4444444444444444444444@",
"^^^^^^^^^^^^^^^^^^^^^^5",
"66666666666666666666667",
"======================8",
"99999999999999999999990",
"aaaaaaaaaaaaaaaaaaaaaab",
"8888888888888888888888c",
"dddddddddddddddddddddde"};
