/* XPM */
static char * shade_focus_xpm[] = {
"23 23 64 1",
" 	c None",
".	c #E9E8E7",
"+	c #C3C3C2",
"@	c #9C9C9B",
"#	c #E8E7E6",
"$	c #C2C1C0",
"%	c #9F9F9E",
"&	c #C0BFBF",
"*	c #A1A1A0",
"=	c #E7E6E5",
"-	c #BFBEBD",
";	c #A4A4A3",
">	c #E6E5E4",
",	c #BDBCBB",
"'	c #A6A6A5",
")	c #E5E4E3",
"!	c #BBBBBA",
"~	c #A9A8A7",
"{	c #E4E3E2",
"]	c #BAB9B8",
"^	c #ABABAA",
"/	c #E3E2E1",
"(	c #B8B8B7",
"_	c #FFFFFF",
":	c #AEADAC",
"<	c #E2E1E0",
"[	c #B7B6B5",
"}	c #B0B0AF",
"|	c #B5B4B4",
"1	c #8E8E8D",
"2	c #B3B2B1",
"3	c #E1E0DF",
"4	c #B4B3B2",
"5	c #CCCBCB",
"6	c #B5B5B4",
"7	c #E0DFDE",
"8	c #B2B1B0",
"9	c #C3C2C2",
"0	c #B8B7B6",
"a	c #DFDEDD",
"b	c #BABAB9",
"c	c #DEDDDC",
"d	c #AFAEAD",
"e	c #DDDCDB",
"f	c #ADACAC",
"g	c #DCDBDA",
"h	c #B1B0B0",
"i	c #C4C3C2",
"j	c #DBDAD9",
"k	c #B9B8B8",
"l	c #C7C6C5",
"m	c #DAD9D8",
"n	c #C9C8C7",
"o	c #D9D8D7",
"p	c #C1C0BF",
"q	c #CCCBCA",
"r	c #D8D7D6",
"s	c #C5C4C3",
"t	c #CECDCC",
"u	c #D7D6D5",
"v	c #D1D0CF",
"w	c #D6D5D4",
"x	c #CDCCCB",
"y	c #D3D2D1",
".+++++++++++++++++++++@",
"#$$$$$$$$$$$$$$$$$$$$$%",
"#&&&&&&&&&&&&&&&&&&&&&*",
"=---------------------;",
">,,,,,,,,,,,,,,,,,,,,,'",
")!!!!!!!!!!!!!!!!!!!!!~",
"{]]]]]]]]]]]]]]]]]]]]]^",
"/((((((_________((((((:",
"<[[[[[[_________[[[[[[}",
"<||||||111111111||||||2",
"34444444445_54444444446",
"7888888889___9888888880",
"a}}}}}}}9_____9}}}}}}}b",
"cddddddd_______ddddddd,",
"efffffff1111111fffffff-",
"ghhhhhhhhhhhhhhhhhhhhh$",
"g|||||||||||||||||||||i",
"jkkkkkkkkkkkkkkkkkkkkkl",
"m,,,,,,,,,,,,,,,,,,,,,n",
"opppppppppppppppppppppq",
"rssssssssssssssssssssst",
"unnnnnnnnnnnnnnnnnnnnnv",
"wxxxxxxxxxxxxxxxxxxxxxy"};
