/* XPM */
static char * stuck_focus_alt_xpm[] = {
"23 23 42 1",
" 	c None",
".	c #C3C3C2",
"+	c #9C9C9B",
"@	c #C2C1C0",
"#	c #9F9F9E",
"$	c #C0BFBF",
"%	c #A1A1A0",
"&	c #BFBEBD",
"*	c #A4A4A3",
"=	c #BDBCBB",
"-	c #A6A6A5",
";	c #BBBBBA",
">	c #A9A8A7",
",	c #BAB9B8",
"'	c #ABABAA",
")	c #B8B8B7",
"!	c #FFFFFF",
"~	c #AEADAC",
"{	c #B7B6B5",
"]	c #B0B0AF",
"^	c #B5B4B4",
"/	c #B3B2B1",
"(	c #B4B3B2",
"_	c #B5B5B4",
":	c #B2B1B0",
"<	c #B8B7B6",
"[	c #BABAB9",
"}	c #AFAEAD",
"|	c #ADACAC",
"1	c #B1B0B0",
"2	c #8E8E8D",
"3	c #C4C3C2",
"4	c #B9B8B8",
"5	c #C7C6C5",
"6	c #C9C8C7",
"7	c #C1C0BF",
"8	c #CCCBCA",
"9	c #C5C4C3",
"0	c #CECDCC",
"a	c #D1D0CF",
"b	c #CDCCCB",
"c	c #D3D2D1",
"......................+",
"@@@@@@@@@@@@@@@@@@@@@@#",
"$$$$$$$$$$$$$$$$$$$$$$%",
"&&&&&&&&&&&&&&&&&&&&&&*",
"======================-",
";;;;;;;;;;;;;;;;;;;;;;>",
",,,,,,,,,,,,,,,,,,,,,,'",
")))))))!!!!!!!!!))))))~",
"{{{{{{{!!!!!!!!!{{{{{{]",
"^^^^^^^!!!!!!!!!^^^^^^/",
"(((((((!!!!!!!!!((((((_",
":::::::!!!!!!!!!::::::<",
"]]]]]]]!!!!!!!!!]]]]]][",
"}}}}}}}!!!!!!!!!}}}}}}=",
"|||||||!!!!!!!!!||||||&",
"1111111!!!!!!!!!111111@",
"^^^^^^^222222222^^^^^^3",
"44444444444444444444445",
"======================6",
"77777777777777777777778",
"99999999999999999999990",
"6666666666666666666666a",
"bbbbbbbbbbbbbbbbbbbbbbc"};
