/* XPM */
static char * stuck_focus_xpm[] = {
"23 23 62 1",
" 	c None",
".	c #E9E8E7",
"+	c #C3C3C2",
"@	c #9C9C9B",
"#	c #E8E7E6",
"$	c #C2C1C0",
"%	c #9F9F9E",
"&	c #C0BFBF",
"*	c #A1A1A0",
"=	c #E7E6E5",
"-	c #BFBEBD",
";	c #A4A4A3",
">	c #E6E5E4",
",	c #BDBCBB",
"'	c #A6A6A5",
")	c #E5E4E3",
"!	c #BBBBBA",
"~	c #A9A8A7",
"{	c #E4E3E2",
"]	c #BAB9B8",
"^	c #ABABAA",
"/	c #E3E2E1",
"(	c #B8B8B7",
"_	c #FFFFFF",
":	c #AEADAC",
"<	c #E2E1E0",
"[	c #B7B6B5",
"}	c #B0B0AF",
"|	c #B5B4B4",
"1	c #B3B2B1",
"2	c #E1E0DF",
"3	c #B4B3B2",
"4	c #B5B5B4",
"5	c #E0DFDE",
"6	c #B2B1B0",
"7	c #B8B7B6",
"8	c #DFDEDD",
"9	c #BABAB9",
"0	c #DEDDDC",
"a	c #AFAEAD",
"b	c #DDDCDB",
"c	c #ADACAC",
"d	c #DCDBDA",
"e	c #B1B0B0",
"f	c #8E8E8D",
"g	c #C4C3C2",
"h	c #DBDAD9",
"i	c #B9B8B8",
"j	c #C7C6C5",
"k	c #DAD9D8",
"l	c #C9C8C7",
"m	c #D9D8D7",
"n	c #C1C0BF",
"o	c #CCCBCA",
"p	c #D8D7D6",
"q	c #C5C4C3",
"r	c #CECDCC",
"s	c #D7D6D5",
"t	c #D1D0CF",
"u	c #D6D5D4",
"v	c #CDCCCB",
"w	c #D3D2D1",
".+++++++++++++++++++++@",
"#$$$$$$$$$$$$$$$$$$$$$%",
"#&&&&&&&&&&&&&&&&&&&&&*",
"=---------------------;",
">,,,,,,,,,,,,,,,,,,,,,'",
")!!!!!!!!!!!!!!!!!!!!!~",
"{]]]]]]]]]]]]]]]]]]]]]^",
"/((((((_________((((((:",
"<[[[[[[_________[[[[[[}",
"<||||||_________||||||1",
"2333333_________3333334",
"5666666_________6666667",
"8}}}}}}_________}}}}}}9",
"0aaaaaa_________aaaaaa,",
"bcccccc_________cccccc-",
"deeeeee_________eeeeee$",
"d||||||fffffffff||||||g",
"hiiiiiiiiiiiiiiiiiiiiij",
"k,,,,,,,,,,,,,,,,,,,,,l",
"mnnnnnnnnnnnnnnnnnnnnno",
"pqqqqqqqqqqqqqqqqqqqqqr",
"slllllllllllllllllllllt",
"uvvvvvvvvvvvvvvvvvvvvvw"};
