/* XPM */
static char * unshade_focus_xpm[] = {
"23 23 66 1",
" 	c None",
".	c #E9E8E7",
"+	c #C3C3C2",
"@	c #9C9C9B",
"#	c #E8E7E6",
"$	c #C2C1C0",
"%	c #9F9F9E",
"&	c #C0BFBF",
"*	c #A1A1A0",
"=	c #E7E6E5",
"-	c #BFBEBD",
";	c #A4A4A3",
">	c #E6E5E4",
",	c #BDBCBB",
"'	c #A6A6A5",
")	c #E5E4E3",
"!	c #BBBBBA",
"~	c #A9A8A7",
"{	c #E4E3E2",
"]	c #BAB9B8",
"^	c #ABABAA",
"/	c #E3E2E1",
"(	c #B8B8B7",
"_	c #FFFFFF",
":	c #AEADAC",
"<	c #E2E1E0",
"[	c #B7B6B5",
"}	c #B0B0AF",
"|	c #B5B4B4",
"1	c #8E8E8D",
"2	c #B3B2B1",
"3	c #E1E0DF",
"4	c #B4B3B2",
"5	c #B5B5B4",
"6	c #E0DFDE",
"7	c #B2B1B0",
"8	c #AAAAAA",
"9	c #B8B7B6",
"0	c #DFDEDD",
"a	c #A3A3A0",
"b	c #BABAB9",
"c	c #DEDDDC",
"d	c #AFAEAD",
"e	c #DDDCDB",
"f	c #ADACAC",
"g	c #8F8F8E",
"h	c #A6A5A3",
"i	c #DCDBDA",
"j	c #B1B0B0",
"k	c #C4C3C2",
"l	c #DBDAD9",
"m	c #B9B8B8",
"n	c #C7C6C5",
"o	c #DAD9D8",
"p	c #C9C8C7",
"q	c #D9D8D7",
"r	c #C1C0BF",
"s	c #CCCBCA",
"t	c #D8D7D6",
"u	c #C5C4C3",
"v	c #CECDCC",
"w	c #D7D6D5",
"x	c #D1D0CF",
"y	c #D6D5D4",
"z	c #CDCCCB",
"A	c #D3D2D1",
".+++++++++++++++++++++@",
"#$$$$$$$$$$$$$$$$$$$$$%",
"#&&&&&&&&&&&&&&&&&&&&&*",
"=---------------------;",
">,,,,,,,,,,,,,,,,,,,,,'",
")!!!!!!!!!!!!!!!!!!!!!~",
"{]]]]]]]]]]]]]]]]]]]]]^",
"/((((((_________((((((:",
"<[[[[[[_________[[[[[[}",
"<||||||111111111||||||2",
"34444444_______44444445",
"677777778_____877777779",
"0}}}}}}7a8___8a7}}}}}}b",
"cdddddddda1_1adddddddd,",
"efffffffffaghfffffffff-",
"ijjjjjjjjjjjjjjjjjjjjj$",
"i|||||||||||||||||||||k",
"lmmmmmmmmmmmmmmmmmmmmmn",
"o,,,,,,,,,,,,,,,,,,,,,p",
"qrrrrrrrrrrrrrrrrrrrrrs",
"tuuuuuuuuuuuuuuuuuuuuuv",
"wpppppppppppppppppppppx",
"yzzzzzzzzzzzzzzzzzzzzzA"};
