/* XPM */
static char * max_unfocus_xpm[] = {
"21 21 3 1",
" 	c None",
".	c #EFEFEF",
"+	c #A9A9A9",
".....................",
".....................",
".....................",
".....................",
".....................",
".....................",
"......+++++++++......",
"......+++++++++......",
"......++.....++......",
"......++.....++......",
"......++.....++......",
"......++.....++......",
"......++.....++......",
"......+++++++++......",
"......+++++++++......",
".....................",
".....................",
".....................",
".....................",
".....................",
"....................."};
