/* XPM */
static char * menuicon_focus_xpm[] = {
"21 21 56 1",
" 	c None",
".	c #E9E8E7",
"+	c #C3C3C2",
"@	c #9C9C9B",
"#	c #E8E7E6",
"$	c #C2C1C0",
"%	c #9F9F9E",
"&	c #C0BFBF",
"*	c #A1A1A0",
"=	c #E7E6E5",
"-	c #BFBEBD",
";	c #A4A4A3",
">	c #E6E5E4",
",	c #BDBCBB",
"'	c #A6A6A5",
")	c #E4E3E2",
"!	c #BAB9B8",
"~	c #ABABAA",
"{	c #E3E2E1",
"]	c #B8B8B7",
"^	c #FFFFFF",
"/	c #AEADAC",
"(	c #E2E1E0",
"_	c #B7B6B5",
":	c #B0B0AF",
"<	c #B5B4B4",
"[	c #8E8E8D",
"}	c #B3B2B1",
"|	c #E1E0DF",
"1	c #B4B3B2",
"2	c #B5B5B4",
"3	c #E0DFDE",
"4	c #B2B1B0",
"5	c #B8B7B6",
"6	c #DFDEDD",
"7	c #BABAB9",
"8	c #DEDDDC",
"9	c #AFAEAD",
"0	c #DDDCDB",
"a	c #ADACAC",
"b	c #DCDBDA",
"c	c #B1B0B0",
"d	c #C4C3C2",
"e	c #DAD9D8",
"f	c #C9C8C7",
"g	c #D9D8D7",
"h	c #C1C0BF",
"i	c #CCCBCA",
"j	c #D8D7D6",
"k	c #C5C4C3",
"l	c #CECDCC",
"m	c #D7D6D5",
"n	c #D1D0CF",
"o	c #D6D5D4",
"p	c #CDCCCB",
"q	c #D3D2D1",
".+++++++++++++++++++@",
"#$$$$$$$$$$$$$$$$$$$%",
"#&&&&&&&&&&&&&&&&&&&*",
"=-------------------;",
">,,,,,,,,,,,,,,,,,,,'",
")!!!!!!!!!!!!!!!!!!!~",
"{]]]]]^^^^^^^^^]]]]]/",
"(_____^^^^^^^^^_____:",
"(<<<<<^^[[[[[^^<<<<<}",
"|11111^^^^^^^^^111112",
"344444^^[[[[[^^444445",
"6:::::^^^^^^^^^:::::7",
"899999^^[[[[[^^99999,",
"0aaaaa^^^^^^^^^aaaaa-",
"bccccc^^^^^^^^^ccccc$",
"b<<<<<[[[[[[[[[<<<<<d",
"e,,,,,,,,,,,,,,,,,,,f",
"ghhhhhhhhhhhhhhhhhhhi",
"jkkkkkkkkkkkkkkkkkkkl",
"mfffffffffffffffffffn",
"opppppppppppppppppppq"};
