/* XPM */
static char * menuicon_pressed_xpm[] = {
"21 21 4 1",
" 	c None",
".	c #EFEFEF",
"+	c #FFFFFF",
"@	c #8E8E8D",
".....................",
".....................",
".....................",
".....................",
".....................",
".....................",
"......+++++++++......",
"......+++++++++......",
"......++@@@@@++......",
"......+++++++++......",
"......++@@@@@++......",
"......+++++++++......",
"......++@@@@@++......",
"......+++++++++......",
"......+++++++++......",
"......@@@@@@@@@......",
".....................",
".....................",
".....................",
".....................",
"....................."};
