/* XPM */
static char * shade_focus_alt_xpm[] = {
"21 21 40 1",
" 	c None",
".	c #C3C3C2",
"+	c #9C9C9B",
"@	c #C2C1C0",
"#	c #9F9F9E",
"$	c #C0BFBF",
"%	c #A1A1A0",
"&	c #BFBEBD",
"*	c #A4A4A3",
"=	c #BDBCBB",
"-	c #A6A6A5",
";	c #BAB9B8",
">	c #ABABAA",
",	c #B8B8B7",
"'	c #FFFFFF",
")	c #AEADAC",
"!	c #B7B6B5",
"~	c #B0B0AF",
"{	c #B5B4B4",
"]	c #8E8E8D",
"^	c #B3B2B1",
"/	c #B4B3B2",
"(	c #CCCBCB",
"_	c #B5B5B4",
":	c #B2B1B0",
"<	c #C3C2C2",
"[	c #B8B7B6",
"}	c #BABAB9",
"|	c #AFAEAD",
"1	c #ADACAC",
"2	c #B1B0B0",
"3	c #C4C3C2",
"4	c #C9C8C7",
"5	c #C1C0BF",
"6	c #CCCBCA",
"7	c #C5C4C3",
"8	c #CECDCC",
"9	c #D1D0CF",
"0	c #CDCCCB",
"a	c #D3D2D1",
"....................+",
"@@@@@@@@@@@@@@@@@@@@#",
"$$$$$$$$$$$$$$$$$$$$%",
"&&&&&&&&&&&&&&&&&&&&*",
"====================-",
";;;;;;;;;;;;;;;;;;;;>",
",,,,,,''''''''',,,,,)",
"!!!!!!'''''''''!!!!!~",
"{{{{{{]]]]]]]]]{{{{{^",
"/////////('(////////_",
"::::::::<'''<:::::::[",
"~~~~~~~<'''''<~~~~~~}",
"|||||||'''''''||||||=",
"1111111]]]]]]]111111&",
"22222222222222222222@",
"{{{{{{{{{{{{{{{{{{{{3",
"====================4",
"555555555555555555556",
"777777777777777777778",
"444444444444444444449",
"00000000000000000000a"};
