/* XPM */
static char * close_pressed_xpm[] = {
"24 22 120 2",
"  	c None",
". 	c #FDFDFD",
"+ 	c #FDFDFC",
"@ 	c #FCFDFD",
"# 	c #FDFCFC",
"$ 	c #FDFCFD",
"% 	c #FCFCFC",
"& 	c #FCFCFD",
"* 	c #FCFDFC",
"= 	c #FBFBFB",
"- 	c #FCFBFB",
"; 	c #FCFBFC",
"> 	c #FBFBFC",
", 	c #FCFCFB",
"' 	c #FBFCFB",
") 	c #FBFCFC",
"! 	c #FAFBFB",
"~ 	c #FBFBFA",
"{ 	c #FBFAFB",
"] 	c #FAFAFB",
"^ 	c #FBFAFA",
"/ 	c #FAFAFA",
"( 	c #FAF9F9",
"_ 	c #FAFAF9",
": 	c #FAF9FA",
"< 	c #F9FAF9",
"[ 	c #F9FAFA",
"} 	c #F9F9F9",
"| 	c #F8F9F8",
"1 	c #F9F9F8",
"2 	c #F8F8F8",
"3 	c #F8F8F9",
"4 	c #F7F7F7",
"5 	c #F8F7F7",
"6 	c #F9F8F8",
"7 	c #F7F7F8",
"8 	c #F8F8F7",
"9 	c #F7F8F7",
"0 	c #F6F7F7",
"a 	c #ABABAB",
"b 	c #C6C6C6",
"c 	c #E3E3E3",
"d 	c #F6F6F6",
"e 	c #E4E5E5",
"f 	c #F6F6F7",
"g 	c #F7F8F8",
"h 	c #F7F7F6",
"i 	c #A9A9A9",
"j 	c #E5E5E5",
"k 	c #CBCBCB",
"l 	c #F5F6F6",
"m 	c #F7F6F7",
"n 	c #F6F5F6",
"o 	c #F5F5F5",
"p 	c #E7E8E8",
"q 	c #F5F6F5",
"r 	c #F4F5F4",
"s 	c #E7E7E7",
"t 	c #F4F4F4",
"u 	c #F4F5F5",
"v 	c #F5F4F4",
"w 	c #F4F4F5",
"x 	c #F5F4F5",
"y 	c #F3F3F3",
"z 	c #E2E2E3",
"A 	c #E5E5E6",
"B 	c #F4F4F3",
"C 	c #F3F4F4",
"D 	c #F3F3F4",
"E 	c #DFE0E0",
"F 	c #F3F3F2",
"G 	c #F2F3F3",
"H 	c #F2F2F1",
"I 	c #C7C7C7",
"J 	c #E8E9E9",
"K 	c #F3F2F3",
"L 	c #F2F3F2",
"M 	c #F2F2F2",
"N 	c #F2F1F1",
"O 	c #E9EAEA",
"P 	c #F1F1F1",
"Q 	c #E6E7E7",
"R 	c #AEAEAE",
"S 	c #F1F2F2",
"T 	c #F1F1F2",
"U 	c #F2F1F2",
"V 	c #F1F2F1",
"W 	c #F0F0F0",
"X 	c #F0F0F1",
"Y 	c #F0F1F0",
"Z 	c #F1F0F0",
"` 	c #F1F0F1",
" .	c #F0F1F1",
"..	c #F0EFF0",
"+.	c #EFEFF0",
"@.	c #EFF0F0",
"#.	c #EFEFEF",
"$.	c #F0EFEF",
"%.	c #EFF0EF",
"&.	c #EFEEEF",
"*.	c #EEEEEF",
"=.	c #EFEFEE",
"-.	c #EEEFEF",
";.	c #EFEEEE",
">.	c #EEEEEE",
",.	c #EEEFEE",
"'.	c #EDEEED",
").	c #EDEEEE",
"!.	c #EDEDEE",
"~.	c #EEEDED",
"{.	c #EDEDED",
"].	c #EEEDEE",
"^.	c #EEEEED",
"/.	c #EDECED",
"(.	c #ECECEC",
"_.	c #ECEDEC",
":.	c #ECECED",
"<.	c #EDEDEC",
"[.	c #ECEDED",
"}.	c #EDECEC",
". . . . . . . . + . . . @ . . . # . . . . + . . ",
"# @ $ % % + # # % % % % % % % @ % % % & % % * % ",
"= - ; > = = - , = ; = = > ; > > - = - ' ) - > , ",
"! ! ~ = { ] = ^ { ^ ^ ~ ! { { { ^ ! = = ~ = ~ = ",
"/ / ( / / _ / : / / / / / / / / < : [ ( / [ / } ",
"} } } ( < } } } } } } } } } } } } } } } } } } } ",
"| 1 2 | 1 | 3 2 4 5 4 | 6 2 4 4 4 3 | 6 | 2 2 6 ",
"7 8 8 8 9 4 7 0 a b c d d e b a f 5 7 9 7 7 g 7 ",
"4 0 4 4 0 h h d b i b c j b i k l 4 m 4 4 4 h 4 ",
"d d d n d d d o p b i b b i b e d d d d d n d d ",
"o o o o o l o q r e b i i b s t o q q o o o o o ",
"r u v t w v t x y z b i i b A r v w t r r v u t ",
"B C D B B B C y E b i b b i b E D y D C y D D B ",
"y F y G y y y H b i I p J b i I K y y F L y y y ",
"M M M L M M M N i b O M P Q b R M M M M M M S M ",
"T U S T P H V W ] d W T P W / / P P S N V U P P ",
"P W X Y Y W Z Z Y X Y `  .W W W W Z  .Y X Z  .W ",
"W ..+.@.#.W W W @.+.#.@.W W W @...$.%...+.@.@.W ",
"#.#.#.#.#.#.&.#.#.#.#.#.*.#.#.=.-.-.#.#.#.#.#.=.",
";.>.>.,.&.;.>.>.>.>.>.>.>.>.>.>.;.>.>.>.>.>.>.>.",
"'.).!.!.~.~.!.).'.{.{.!.~.].!.~.).^.{.^.'.'.!.{.",
"{./.(.(._.:.{.(.<./.[././.<.{.(.[.}.<.}./.<.(.}."};
