/* XPM */
static char * max_pressed_xpm[] = {
"24 22 109 2",
"  	c None",
". 	c #FDFDFD",
"+ 	c #FDFDFC",
"@ 	c #FCFDFD",
"# 	c #FDFCFC",
"$ 	c #FDFCFD",
"% 	c #FCFCFC",
"& 	c #FCFCFD",
"* 	c #FCFDFC",
"= 	c #FBFBFB",
"- 	c #FCFBFB",
"; 	c #FCFBFC",
"> 	c #FBFBFC",
", 	c #FCFCFB",
"' 	c #FBFCFB",
") 	c #FBFCFC",
"! 	c #FAFBFB",
"~ 	c #FBFBFA",
"{ 	c #FBFAFB",
"] 	c #FAFAFB",
"^ 	c #FBFAFA",
"/ 	c #FAFAFA",
"( 	c #FAF9F9",
"_ 	c #FAFAF9",
": 	c #FAF9FA",
"< 	c #F9FAF9",
"[ 	c #F9FAFA",
"} 	c #F9F9F9",
"| 	c #F8F9F8",
"1 	c #F9F9F8",
"2 	c #F8F8F8",
"3 	c #F8F8F9",
"4 	c #F9F8F8",
"5 	c #F7F7F8",
"6 	c #F8F8F7",
"7 	c #F7F8F7",
"8 	c #F7F7F7",
"9 	c #F7F8F8",
"0 	c #B0B0B0",
"a 	c #A9A9A9",
"b 	c #ADADAD",
"c 	c #AEAEAE",
"d 	c #B1B1B1",
"e 	c #B3B3B3",
"f 	c #F8F7F7",
"g 	c #F6F7F7",
"h 	c #F7F7F6",
"i 	c #ACACAC",
"j 	c #F7F6F7",
"k 	c #F6F6F6",
"l 	c #F6F5F6",
"m 	c #F5F5F5",
"n 	c #F5F6F6",
"o 	c #F4F5F4",
"p 	c #F5F6F5",
"q 	c #F4F5F5",
"r 	c #F5F4F4",
"s 	c #F4F4F4",
"t 	c #F4F4F5",
"u 	c #F4F3F4",
"v 	c #F5F4F5",
"w 	c #F4F4F3",
"x 	c #F3F4F4",
"y 	c #F3F3F4",
"z 	c #F3F3F3",
"A 	c #F3F3F2",
"B 	c #F2F3F3",
"C 	c #F2F2F1",
"D 	c #F3F2F3",
"E 	c #F2F3F2",
"F 	c #F2F2F2",
"G 	c #F2F1F1",
"H 	c #F1F2F2",
"I 	c #F1F1F2",
"J 	c #F2F1F2",
"K 	c #F1F1F1",
"L 	c #F1F2F1",
"M 	c #F0F0F0",
"N 	c #F0F0F1",
"O 	c #F0F1F0",
"P 	c #F1F0F0",
"Q 	c #F0F1F1",
"R 	c #F0EFF0",
"S 	c #EFEFF0",
"T 	c #EFF0F0",
"U 	c #EFEFEF",
"V 	c #F0EFEF",
"W 	c #EFF0EF",
"X 	c #EFEEEF",
"Y 	c #EEEEEF",
"Z 	c #EFEFEE",
"` 	c #EEEFEF",
" .	c #EFEEEE",
"..	c #EEEEEE",
"+.	c #EEEFEE",
"@.	c #EDEEED",
"#.	c #EDEEEE",
"$.	c #EDEDEE",
"%.	c #EEEDED",
"&.	c #EDEDED",
"*.	c #EEEDEE",
"=.	c #EEEEED",
"-.	c #EDECED",
";.	c #ECECEC",
">.	c #ECEDEC",
",.	c #ECECED",
"'.	c #EDEDEC",
").	c #ECEDED",
"!.	c #EDECEC",
". . . . . . . . + . . . @ . . . # . . . . + . . ",
"# @ $ % % + # # % % % % % % % @ % % % & % % * % ",
"= - ; > = = - , = ; = = > ; > > - = - ' ) - > , ",
"! ! ~ = { ] = ^ { ^ ^ ~ ! { { { ^ ! = = ~ = ~ = ",
"/ / ( / / _ / : / / / / / / / / < : [ ( / [ / } ",
"} } } ( < } } } } } } } } } } } } } } } } } } } ",
"| 1 2 | 1 | 3 2 2 4 2 | 4 2 2 2 2 3 | 4 | 2 2 4 ",
"5 6 6 6 7 8 5 9 0 a b c c c d e 5 f 5 7 5 5 9 5 ",
"8 g 8 8 g h h 8 i a a a a a a a g 8 j 8 8 8 h 8 ",
"k k k l k k k m a a % % % % a a k k k k k l k k ",
"m m m m m n m o a a m m n m a a m p p m m m m m ",
"o q r s t r s u a a s o s v a a r t s o o r q s ",
"w x y w w w x z a a u x z z a a y z y x z y y w ",
"z A z B z z z C a a a a a a a a D z z A E z z z ",
"F F F E F F F G a a a a a a a a F F F F F F H F ",
"I J H I K C L M % % % % % % % % K K H G L J K K ",
"K M N O O M P M M M M M M M M M M P Q O N P Q M ",
"M R S T U M M M T S U T M M M T R V W R S T T M ",
"U U U U U U X U U U U U Y U U Z ` ` U U U U U Z ",
" .....+.X  ..................... ...............",
"@.#.$.$.%.%.$.#.@.&.&.$.%.*.$.%.#.=.&.=.@.@.$.&.",
"&.-.;.;.>.,.&.;.'.-.).-.-.'.&.;.).!.'.!.-.'.;.!."};
