/* XPM */
static char * menuicon_xpm[] = {
"24 22 104 2",
"  	c None",
". 	c #FDFDFD",
"+ 	c #FDFDFC",
"@ 	c #FCFDFD",
"# 	c #FDFCFC",
"$ 	c #FDFCFD",
"% 	c #FCFCFC",
"& 	c #FCFCFD",
"* 	c #FCFDFC",
"= 	c #FBFBFB",
"- 	c #FCFBFB",
"; 	c #FCFBFC",
"> 	c #FBFBFC",
", 	c #FCFCFB",
"' 	c #FBFCFB",
") 	c #FBFCFC",
"! 	c #FAFBFB",
"~ 	c #FBFBFA",
"{ 	c #FBFAFB",
"] 	c #FAFAFB",
"^ 	c #FBFAFA",
"/ 	c #FAFAFA",
"( 	c #FAF9F9",
"_ 	c #FAFAF9",
": 	c #FAF9FA",
"< 	c #F9FAF9",
"[ 	c #F9FAFA",
"} 	c #F9F9F9",
"| 	c #F8F9F8",
"1 	c #F9F9F8",
"2 	c #F8F8F8",
"3 	c #F8F8F9",
"4 	c #F9F8F8",
"5 	c #F7F7F8",
"6 	c #F8F8F7",
"7 	c #F7F8F7",
"8 	c #F7F7F7",
"9 	c #F7F8F8",
"0 	c #2E3436",
"a 	c #F8F7F7",
"b 	c #F6F7F7",
"c 	c #F7F7F6",
"d 	c #F7F6F7",
"e 	c #F6F6F6",
"f 	c #F6F5F6",
"g 	c #F5F5F5",
"h 	c #F5F6F6",
"i 	c #F5F6F5",
"j 	c #F4F5F4",
"k 	c #F4F5F5",
"l 	c #F5F4F4",
"m 	c #F4F4F4",
"n 	c #F4F4F5",
"o 	c #F5F4F5",
"p 	c #F4F4F3",
"q 	c #F3F4F4",
"r 	c #F3F3F4",
"s 	c #F3F3F3",
"t 	c #F3F3F2",
"u 	c #F2F3F3",
"v 	c #F3F2F3",
"w 	c #F2F3F2",
"x 	c #F2F2F2",
"y 	c #F3F2F2",
"z 	c #F1F2F2",
"A 	c #F1F1F2",
"B 	c #F2F1F2",
"C 	c #F1F1F1",
"D 	c #F2F2F1",
"E 	c #F1F2F1",
"F 	c #F2F1F1",
"G 	c #F0F0F0",
"H 	c #F0F0F1",
"I 	c #F0F1F0",
"J 	c #F1F0F0",
"K 	c #F1F0F1",
"L 	c #F0F1F1",
"M 	c #F0EFF0",
"N 	c #EFEFF0",
"O 	c #EFF0F0",
"P 	c #EFEFEF",
"Q 	c #F0EFEF",
"R 	c #EFF0EF",
"S 	c #EFEEEF",
"T 	c #EEEEEF",
"U 	c #EFEFEE",
"V 	c #EEEFEF",
"W 	c #EFEEEE",
"X 	c #EEEEEE",
"Y 	c #EEEFEE",
"Z 	c #EDEEED",
"` 	c #EDEEEE",
" .	c #EDEDEE",
"..	c #EEEDED",
"+.	c #EDEDED",
"@.	c #EEEDEE",
"#.	c #EEEEED",
"$.	c #EDECED",
"%.	c #ECECEC",
"&.	c #ECEDEC",
"*.	c #ECECED",
"=.	c #EDEDEC",
"-.	c #ECEDED",
";.	c #EDECEC",
". . . . . . . . + . . . @ . . . # . . . . + . . ",
"# @ $ % % + # # % % % % % % % @ % % % & % % * % ",
"= - ; > = = - , = ; = = > ; > > - = - ' ) - > , ",
"! ! ~ = { ] = ^ { ^ ^ ~ ! { { { ^ ! = = ~ = ~ = ",
"/ / ( / / _ / : / / / / / / / / < : [ ( / [ / } ",
"} } } ( < } } } } } } } } } } } } } } } } } } } ",
"| 1 2 | 1 | 3 2 2 4 2 | 4 2 2 2 2 3 | 4 | 2 2 4 ",
"5 6 6 6 7 8 5 9 0 0 0 0 0 0 0 0 5 a 5 7 5 5 9 5 ",
"8 b 8 8 b c c 8 0 0 0 0 0 0 0 0 b 8 d 8 8 8 c 8 ",
"e e e f e e e e 0 0 % % % % 0 0 e e e e e f e e ",
"g g g g g h g i 0 0 0 0 0 0 0 0 g i i g g g g g ",
"j k l m n l m o 0 0 % % % % 0 0 l n m j j l k m ",
"p q r p p p q m 0 0 0 0 0 0 0 0 r s r q s r r p ",
"s t s u s s s t 0 0 0 0 0 0 0 0 v s s t w s s s ",
"x x x w x x x y 0 0 0 0 0 0 0 0 x x x x x x z x ",
"A B z A C D E C % % % % % % % % C C z F E B C C ",
"C G H I I G J J I H I K L C L H G J L I H J L G ",
"G M N O P G G G O N P O G G G O M Q R M N O O G ",
"P P P P P P S P P P P P T P P U V V P P P P P U ",
"W X X Y S W X X X X X X X X X X W X X X X X X X ",
"Z `  . ..... .` Z +.+. ...@. ...` #.+.#.Z Z  .+.",
"+.$.%.%.&.*.+.%.=.$.-.$.$.=.+.%.-.;.=.;.$.=.%.;."};
