/* XPM */
static char * shade_xpm[] = {
"24 22 116 2",
"  	c None",
". 	c #FDFDFD",
"+ 	c #FDFDFC",
"@ 	c #FCFDFD",
"# 	c #FDFCFC",
"$ 	c #FDFCFD",
"% 	c #FCFCFC",
"& 	c #FCFCFD",
"* 	c #FCFDFC",
"= 	c #FBFBFB",
"- 	c #FCFBFB",
"; 	c #FCFBFC",
"> 	c #FBFBFC",
", 	c #FCFCFB",
"' 	c #FBFCFB",
") 	c #FBFCFC",
"! 	c #FAFBFB",
"~ 	c #FBFBFA",
"{ 	c #FBFAFB",
"] 	c #FAFAFB",
"^ 	c #FBFAFA",
"/ 	c #FAFAFA",
"( 	c #FAF9F9",
"_ 	c #FAFAF9",
": 	c #FAF9FA",
"< 	c #F9FAF9",
"[ 	c #F9FAFA",
"} 	c #F9F9F9",
"| 	c #F8F9F8",
"1 	c #F9F9F8",
"2 	c #F8F8F8",
"3 	c #F8F8F9",
"4 	c #F9F8F8",
"5 	c #F7F7F8",
"6 	c #F8F8F7",
"7 	c #F7F8F7",
"8 	c #F7F7F7",
"9 	c #F7F8F8",
"0 	c #2E3436",
"a 	c #F8F7F7",
"b 	c #F6F7F7",
"c 	c #F7F7F6",
"d 	c #F7F6F7",
"e 	c #F6F6F6",
"f 	c #F6F5F6",
"g 	c #F5F5F5",
"h 	c #F5F6F6",
"i 	c #F5F6F5",
"j 	c #E4E5E5",
"k 	c #F4F5F4",
"l 	c #F4F5F5",
"m 	c #F5F4F4",
"n 	c #F4F4F4",
"o 	c #F4F4F5",
"p 	c #F5F4F5",
"q 	c #E2E2E3",
"r 	c #525758",
"s 	c #4C5153",
"t 	c #DFDFE0",
"u 	c #F4F4F3",
"v 	c #F3F4F4",
"w 	c #F3F3F4",
"x 	c #DFE0E0",
"y 	c #4E5355",
"z 	c #4F5456",
"A 	c #4D5254",
"B 	c #F3F3F3",
"C 	c #F3F3F2",
"D 	c #F2F3F3",
"E 	c #54595B",
"F 	c #E6E7E7",
"G 	c #53585A",
"H 	c #F3F2F3",
"I 	c #F2F3F2",
"J 	c #F2F2F2",
"K 	c #F3F2F2",
"L 	c #F1F2F2",
"M 	c #F1F1F2",
"N 	c #F2F1F2",
"O 	c #F1F1F1",
"P 	c #F2F2F1",
"Q 	c #F1F2F1",
"R 	c #F2F1F1",
"S 	c #F0F0F0",
"T 	c #F0F0F1",
"U 	c #F0F1F0",
"V 	c #F1F0F0",
"W 	c #F1F0F1",
"X 	c #F0F1F1",
"Y 	c #F0EFF0",
"Z 	c #EFEFF0",
"` 	c #EFF0F0",
" .	c #EFEFEF",
"..	c #F0EFEF",
"+.	c #EFF0EF",
"@.	c #EFEEEF",
"#.	c #EEEEEF",
"$.	c #EFEFEE",
"%.	c #EEEFEF",
"&.	c #EFEEEE",
"*.	c #EEEEEE",
"=.	c #EEEFEE",
"-.	c #EDEEED",
";.	c #EDEEEE",
">.	c #EDEDEE",
",.	c #EEEDED",
"'.	c #EDEDED",
").	c #EEEDEE",
"!.	c #EEEEED",
"~.	c #EDECED",
"{.	c #ECECEC",
"].	c #ECEDEC",
"^.	c #ECECED",
"/.	c #EDEDEC",
"(.	c #ECEDED",
"_.	c #EDECEC",
". . . . . . . . + . . . @ . . . # . . . . + . . ",
"# @ $ % % + # # % % % % % % % @ % % % & % % * % ",
"= - ; > = = - , = ; = = > ; > > - = - ' ) - > , ",
"! ! ~ = { ] = ^ { ^ ^ ~ ! { { { ^ ! = = ~ = ~ = ",
"/ / ( / / _ / : / / / / / / / / < : [ ( / [ / } ",
"} } } ( < } } } } } } } } } } } } } } } } } } } ",
"| 1 2 | 1 | 3 2 2 4 2 | 4 2 2 2 2 3 | 4 | 2 2 4 ",
"5 6 6 6 7 8 5 9 0 0 0 0 0 0 0 0 5 a 5 7 5 5 9 5 ",
"8 b 8 8 b c c 8 0 0 0 0 0 0 0 0 b 8 d 8 8 8 c 8 ",
"e e e f e e e e % % % % % % % % e e e e e f e e ",
"g g g g g h g i i g j 0 0 j g g g i i g g g g g ",
"k l m n o m n p n q r 0 0 s t k m o n k k m l n ",
"u v w u u u v n x y 0 z z 0 A x w B w v B w w u ",
"B C B D B B B C E 0 z F F z 0 G H B B C I B B B ",
"J J J I J J J K 0 E F J J F E 0 J J J J J J L J ",
"M N L M O P Q O % / O M O O / % O O L R Q N O O ",
"O S T U U S V V U T U W X O X T S V X U T V X S ",
"S Y Z `  .S S S ` Z  .` S S S ` Y ..+.Y Z ` ` S ",
" . . . . . .@. . . . . .#. . .$.%.%. . . . . .$.",
"&.*.*.=.@.&.*.*.*.*.*.*.*.*.*.*.&.*.*.*.*.*.*.*.",
"-.;.>.>.,.,.>.;.-.'.'.>.,.).>.,.;.!.'.!.-.-.>.'.",
"'.~.{.{.].^.'.{./.~.(.~.~./.'.{.(._./._.~./.{._."};
