/* XPM */
static char * unshade_pressed_xpm[] = {
"24 22 110 2",
"  	c None",
". 	c #FDFDFD",
"+ 	c #FDFDFC",
"@ 	c #FCFDFD",
"# 	c #FDFCFC",
"$ 	c #FDFCFD",
"% 	c #FCFCFC",
"& 	c #FCFCFD",
"* 	c #FCFDFC",
"= 	c #FBFBFB",
"- 	c #FCFBFB",
"; 	c #FCFBFC",
"> 	c #FBFBFC",
", 	c #FCFCFB",
"' 	c #FBFCFB",
") 	c #FBFCFC",
"! 	c #FAFBFB",
"~ 	c #FBFBFA",
"{ 	c #FBFAFB",
"] 	c #FAFAFB",
"^ 	c #FBFAFA",
"/ 	c #FAFAFA",
"( 	c #FAF9F9",
"_ 	c #FAFAF9",
": 	c #FAF9FA",
"< 	c #F9FAF9",
"[ 	c #F9FAFA",
"} 	c #F9F9F9",
"| 	c #F8F9F8",
"1 	c #F9F9F8",
"2 	c #F8F8F8",
"3 	c #F8F8F9",
"4 	c #F9F8F8",
"5 	c #F7F7F8",
"6 	c #F8F8F7",
"7 	c #F7F8F7",
"8 	c #F7F7F7",
"9 	c #F7F8F8",
"0 	c #A9A9A9",
"a 	c #F8F7F7",
"b 	c #F6F7F7",
"c 	c #F7F7F6",
"d 	c #F7F6F7",
"e 	c #F6F6F6",
"f 	c #F6F5F6",
"g 	c #F5F5F5",
"h 	c #F5F6F6",
"i 	c #F5F6F5",
"j 	c #C6C6C6",
"k 	c #E3E3E3",
"l 	c #F4F5F4",
"m 	c #F4F5F5",
"n 	c #F5F4F4",
"o 	c #F4F4F4",
"p 	c #F4F4F5",
"q 	c #F5F4F5",
"r 	c #E4E4E4",
"s 	c #F4F4F3",
"t 	c #F3F4F4",
"u 	c #F3F3F4",
"v 	c #E3E4E4",
"w 	c #E0E1E1",
"x 	c #F3F3F3",
"y 	c #F3F3F2",
"z 	c #F2F3F3",
"A 	c #E4E5E5",
"B 	c #F3F2F2",
"C 	c #F3F2F3",
"D 	c #F2F3F2",
"E 	c #F2F2F2",
"F 	c #F1F2F2",
"G 	c #F1F1F2",
"H 	c #F2F1F2",
"I 	c #F1F1F1",
"J 	c #F2F2F1",
"K 	c #F1F2F1",
"L 	c #F2F1F1",
"M 	c #F0F0F0",
"N 	c #F0F0F1",
"O 	c #F0F1F0",
"P 	c #F1F0F0",
"Q 	c #F1F0F1",
"R 	c #F0F1F1",
"S 	c #F0EFF0",
"T 	c #EFEFF0",
"U 	c #EFF0F0",
"V 	c #EFEFEF",
"W 	c #F0EFEF",
"X 	c #EFF0EF",
"Y 	c #EFEEEF",
"Z 	c #EEEEEF",
"` 	c #EFEFEE",
" .	c #EEEFEF",
"..	c #EFEEEE",
"+.	c #EEEEEE",
"@.	c #EEEFEE",
"#.	c #EDEEED",
"$.	c #EDEEEE",
"%.	c #EDEDEE",
"&.	c #EEEDED",
"*.	c #EDEDED",
"=.	c #EEEDEE",
"-.	c #EEEEED",
";.	c #EDECED",
">.	c #ECECEC",
",.	c #ECEDEC",
"'.	c #ECECED",
").	c #EDEDEC",
"!.	c #ECEDED",
"~.	c #EDECEC",
". . . . . . . . + . . . @ . . . # . . . . + . . ",
"# @ $ % % + # # % % % % % % % @ % % % & % % * % ",
"= - ; > = = - , = ; = = > ; > > - = - ' ) - > , ",
"! ! ~ = { ] = ^ { ^ ^ ~ ! { { { ^ ! = = ~ = ~ = ",
"/ / ( / / _ / : / / / / / / / / < : [ ( / [ / } ",
"} } } ( < } } } } } } } } } } } } } } } } } } } ",
"| 1 2 | 1 | 3 2 2 4 2 | 4 2 2 2 2 3 | 4 | 2 2 4 ",
"5 6 6 6 7 8 5 9 0 0 0 0 0 0 0 0 5 a 5 7 5 5 9 5 ",
"8 b 8 8 b c c 8 0 0 0 0 0 0 0 0 b 8 d 8 8 8 c 8 ",
"e e e f e e e e / / / % = / / = e e e e e f e e ",
"g g g g g h g i 0 j k g h k j 0 g i i g g g g g ",
"l m n o p n o q j 0 j k r j 0 j n p o l l n m o ",
"s t u s s s t o v j 0 j j 0 j w u x u t x u u s ",
"x y x z x x x y z A j 0 0 j k B C x x y D x x x ",
"E E E D E E E B E E k 0 0 k E E E E E E E E F E ",
"G H F G I J K I G I I = = I I I I I F L K H I I ",
"I M N O O M P P O N O Q R I R N M P R O N P R M ",
"M S T U V M M M U T V U M M M U S W X S T U U M ",
"V V V V V V Y V V V V V Z V V `  . .V V V V V ` ",
"..+.+.@.Y ..+.+.+.+.+.+.+.+.+.+...+.+.+.+.+.+.+.",
"#.$.%.%.&.&.%.$.#.*.*.%.&.=.%.&.$.-.*.-.#.#.%.*.",
"*.;.>.>.,.'.*.>.).;.!.;.;.).*.>.!.~.).~.;.).>.~."};
