/* XPM */
static char * unshade_xpm[] = {
"24 22 117 2",
"  	c None",
". 	c #FDFDFD",
"+ 	c #FDFDFC",
"@ 	c #FCFDFD",
"# 	c #FDFCFC",
"$ 	c #FDFCFD",
"% 	c #FCFCFC",
"& 	c #FCFCFD",
"* 	c #FCFDFC",
"= 	c #FBFBFB",
"- 	c #FCFBFB",
"; 	c #FCFBFC",
"> 	c #FBFBFC",
", 	c #FCFCFB",
"' 	c #FBFCFB",
") 	c #FBFCFC",
"! 	c #FAFBFB",
"~ 	c #FBFBFA",
"{ 	c #FBFAFB",
"] 	c #FAFAFB",
"^ 	c #FBFAFA",
"/ 	c #FAFAFA",
"( 	c #FAF9F9",
"_ 	c #FAFAF9",
": 	c #FAF9FA",
"< 	c #F9FAF9",
"[ 	c #F9FAFA",
"} 	c #F9F9F9",
"| 	c #F8F9F8",
"1 	c #F9F9F8",
"2 	c #F8F8F8",
"3 	c #F8F8F9",
"4 	c #F9F8F8",
"5 	c #F7F7F8",
"6 	c #F8F8F7",
"7 	c #F7F8F7",
"8 	c #F7F7F7",
"9 	c #F7F8F8",
"0 	c #2E3436",
"a 	c #F8F7F7",
"b 	c #F6F7F7",
"c 	c #F7F7F6",
"d 	c #F7F6F7",
"e 	c #F6F6F6",
"f 	c #F6F5F6",
"g 	c #F5F5F5",
"h 	c #F5F6F6",
"i 	c #F5F6F5",
"j 	c #5C6162",
"k 	c #E3E3E3",
"l 	c #F4F5F4",
"m 	c #F4F5F5",
"n 	c #F5F4F4",
"o 	c #F4F4F4",
"p 	c #F4F4F5",
"q 	c #F5F4F5",
"r 	c #505557",
"s 	c #515657",
"t 	c #E4E4E4",
"u 	c #53585A",
"v 	c #F4F4F3",
"w 	c #F3F4F4",
"x 	c #F3F3F4",
"y 	c #E3E4E4",
"z 	c #4C5152",
"A 	c #525758",
"B 	c #484D4F",
"C 	c #E0E1E1",
"D 	c #F3F3F3",
"E 	c #F3F3F2",
"F 	c #F2F3F3",
"G 	c #E4E5E5",
"H 	c #474C4E",
"I 	c #F3F2F2",
"J 	c #F3F2F3",
"K 	c #F2F3F2",
"L 	c #F2F2F2",
"M 	c #F1F2F2",
"N 	c #F1F1F2",
"O 	c #F2F1F2",
"P 	c #F1F1F1",
"Q 	c #F2F2F1",
"R 	c #F1F2F1",
"S 	c #F2F1F1",
"T 	c #F0F0F0",
"U 	c #F0F0F1",
"V 	c #F0F1F0",
"W 	c #F1F0F0",
"X 	c #F1F0F1",
"Y 	c #F0F1F1",
"Z 	c #F0EFF0",
"` 	c #EFEFF0",
" .	c #EFF0F0",
"..	c #EFEFEF",
"+.	c #F0EFEF",
"@.	c #EFF0EF",
"#.	c #EFEEEF",
"$.	c #EEEEEF",
"%.	c #EFEFEE",
"&.	c #EEEFEF",
"*.	c #EFEEEE",
"=.	c #EEEEEE",
"-.	c #EEEFEE",
";.	c #EDEEED",
">.	c #EDEEEE",
",.	c #EDEDEE",
"'.	c #EEEDED",
").	c #EDEDED",
"!.	c #EEEDEE",
"~.	c #EEEEED",
"{.	c #EDECED",
"].	c #ECECEC",
"^.	c #ECEDEC",
"/.	c #ECECED",
"(.	c #EDEDEC",
"_.	c #ECEDED",
":.	c #EDECEC",
". . . . . . . . + . . . @ . . . # . . . . + . . ",
"# @ $ % % + # # % % % % % % % @ % % % & % % * % ",
"= - ; > = = - , = ; = = > ; > > - = - ' ) - > , ",
"! ! ~ = { ] = ^ { ^ ^ ~ ! { { { ^ ! = = ~ = ~ = ",
"/ / ( / / _ / : / / / / / / / / < : [ ( / [ / } ",
"} } } ( < } } } } } } } } } } } } } } } } } } } ",
"| 1 2 | 1 | 3 2 2 4 2 | 4 2 2 2 2 3 | 4 | 2 2 4 ",
"5 6 6 6 7 8 5 9 0 0 0 0 0 0 0 0 5 a 5 7 5 5 9 5 ",
"8 b 8 8 b c c 8 0 0 0 0 0 0 0 0 b 8 d 8 8 8 c 8 ",
"e e e f e e e e / / / % = / / = e e e e e f e e ",
"g g g g g h g i 0 j k g h k j 0 g i i g g g g g ",
"l m n o p n o q r 0 s k t u 0 r n p o l l n m o ",
"v w x v v v w o y z 0 s A 0 B C x D x w D x x v ",
"D E D F D D D E F G z 0 0 H k I J D D E K D D D ",
"L L L K L L L I L L k 0 0 k L L L L L L L L M L ",
"N O M N P Q R P N P P = = P P P P P M S R O P P ",
"P T U V V T W W V U V X Y P Y U T W Y V U W Y T ",
"T Z `  ...T T T  .` .. .T T T  .Z +.@.Z `  . .T ",
"............#...........$.....%.&.&...........%.",
"*.=.=.-.#.*.=.=.=.=.=.=.=.=.=.=.*.=.=.=.=.=.=.=.",
";.>.,.,.'.'.,.>.;.).).,.'.!.,.'.>.~.).~.;.;.,.).",
").{.].].^./.).].(.{._.{.{.(.).]._.:.(.:.{.(.].:."};
