#define desk_toggled_width 16
#define desk_toggled_height 10
static unsigned char desk_toggled_bits[] = {
   0x78, 0x1e, 0x68, 0x16, 0x18, 0x18, 0xd8, 0x1b, 0xc0, 0x03, 0xc0, 0x03,
   0xd8, 0x1b, 0x18, 0x18, 0x68, 0x16, 0x78, 0x1e };
