#define desk_toggled_pressed_width 16
#define desk_toggled_pressed_height 10
static unsigned char desk_toggled_pressed_bits[] = {
   0x00, 0x00, 0x00, 0x00, 0x60, 0x06, 0x20, 0x04, 0x80, 0x01, 0x80, 0x01,
   0x20, 0x04, 0x60, 0x06, 0x00, 0x00, 0x00, 0x00 };
