#define desk_width 16
#define desk_height 10
static unsigned char desk_bits[] = {
   0x00, 0x00, 0x00, 0x00, 0x00, 0x00, 0xc0, 0x03, 0xc0, 0x03, 0xc0, 0x03,
   0xc0, 0x03, 0x00, 0x00, 0x00, 0x00, 0x00, 0x00 };
