#define iconify_hover_width 16
#define iconify_hover_height 10
static unsigned char iconify_hover_bits[] = {
   0x78, 0x00, 0x78, 0x00, 0x18, 0x00, 0xd8, 0x03, 0x40, 0x02, 0x40, 0x02,
   0xc0, 0x03, 0x00, 0x00, 0x00, 0x00, 0x00, 0x00 };
