#define iconify_width 16
#define iconify_height 10
static unsigned char iconify_bits[] = {
   0x78, 0x00, 0x78, 0x00, 0x18, 0x00, 0xd8, 0x03, 0xc0, 0x03, 0xc0, 0x03,
   0xc0, 0x03, 0x00, 0x00, 0x00, 0x00, 0x00, 0x00 };
