#define iconify_pressed_width 16
#define iconify_pressed_height 10
static unsigned char iconify_pressed_bits[] = {
   0x00, 0x00, 0x70, 0x00, 0x70, 0x00, 0x30, 0x00, 0x80, 0x01, 0x80, 0x01,
   0x00, 0x00, 0x00, 0x00, 0x00, 0x00, 0x00, 0x00 };
