#define max_width 16
#define max_height 10
static unsigned char max_bits[] = {
   0x00, 0x1e, 0x00, 0x1e, 0x00, 0x18, 0xc0, 0x1b, 0xc0, 0x03, 0xc0, 0x03,
   0xd8, 0x03, 0x18, 0x00, 0x78, 0x00, 0x78, 0x00 };
