#define max_toggled_width 16
#define max_toggled_height 10
static unsigned char max_toggled_bits[] = {
   0x78, 0x1e, 0x78, 0x1e, 0x18, 0x18, 0xd8, 0x1b, 0xc0, 0x03, 0xc0, 0x03,
   0xd8, 0x1b, 0x18, 0x18, 0x78, 0x1e, 0x78, 0x1e };
