#define max_toggled_hover_width 16
#define max_toggled_hover_height 10
static unsigned char max_toggled_hover_bits[] = {
   0x78, 0x1e, 0x78, 0x1e, 0x18, 0x18, 0xd8, 0x1b, 0x40, 0x02, 0x40, 0x02,
   0xd8, 0x1b, 0x18, 0x18, 0x78, 0x1e, 0x78, 0x1e };
