#define max_pressed_width 16
#define max_pressed_height 10
static unsigned char max_pressed_bits[] = {
   0x00, 0x00, 0x00, 0x0f, 0x00, 0x0f, 0x00, 0x0c, 0x80, 0x0d, 0xb0, 0x01,
   0x30, 0x00, 0xf0, 0x00, 0xf0, 0x00, 0x00, 0x00 };
