#define max_toggled_pressed_width 16
#define max_toggled_pressed_height 10
static unsigned char max_toggled_pressed_bits[] = {
   0x00, 0x00, 0x70, 0x0e, 0x70, 0x0e, 0x30, 0x0c, 0x80, 0x01, 0x80, 0x01,
   0x30, 0x0c, 0x70, 0x0e, 0x70, 0x0e, 0x00, 0x00 };
