#define shade_width 16
#define shade_height 10
static unsigned char shade_bits[] = {
   0x00, 0x00, 0x00, 0x00, 0x00, 0x00, 0xc0, 0x03, 0xc0, 0x03, 0xc0, 0x03,
   0xd8, 0x1b, 0x18, 0x18, 0x78, 0x1e, 0x78, 0x1e };
